<svg width="18" height="21" viewBox="0 0 18 21" fill="none" xmlns="http://www.w3.org/2000/svg">
<path d="M16.875 0H1.125C0.826631 0 0.540483 0.118526 0.329505 0.329505C0.118526 0.540483 0 0.826631 0 1.125V18C2.31441e-05 18.2633 0.0693434 18.5219 0.200995 18.7499C0.332646 18.9779 0.521991 19.1673 0.75 19.2989V21H4.125V19.5H13.875V21H17.25V19.2989C17.478 19.1673 17.6674 18.9779 17.799 18.7499C17.9307 18.5219 18 18.2633 18 18V1.125C18 0.826631 17.8815 0.540483 17.6705 0.329505C17.4595 0.118526 17.1734 0 16.875 0V0ZM5.24156 15.9127C5.21081 16.1937 5.10124 16.4604 4.92549 16.6819C4.74974 16.9033 4.51497 17.0707 4.24825 17.1645C3.98153 17.2583 3.69372 17.2749 3.41801 17.2122C3.1423 17.1495 2.88991 17.0102 2.68995 16.8103C2.49 16.6104 2.35061 16.3581 2.28786 16.0824C2.22512 15.8067 2.24157 15.5189 2.33533 15.2521C2.42908 14.9854 2.59632 14.7505 2.81776 14.5747C3.0392 14.3989 3.30582 14.2893 3.58688 14.2584C3.80994 14.2348 4.03547 14.2613 4.24697 14.336C4.45846 14.4108 4.65056 14.5319 4.8092 14.6905C4.96784 14.849 5.089 15.0411 5.16381 15.2526C5.23862 15.4641 5.26519 15.6896 5.24156 15.9127V15.9127ZM8.25 12H1.5V4.5H8.25V12ZM9 3H1.52156L1.5 1.5H16.5L16.4784 3H9ZM9.75 4.5H16.5V12H9.75V4.5ZM12.7584 15.5873C12.7892 15.3063 12.8988 15.0396 13.0745 14.8181C13.2503 14.5967 13.485 14.4293 13.7517 14.3355C14.0185 14.2417 14.3063 14.2251 14.582 14.2878C14.8577 14.3505 15.1101 14.4898 15.31 14.6897C15.51 14.8896 15.6494 15.1419 15.7121 15.4176C15.7749 15.6933 15.7584 15.9811 15.6647 16.2479C15.5709 16.5146 15.4037 16.7495 15.1822 16.9253C14.9608 17.1011 14.6942 17.2107 14.4131 17.2416C14.1901 17.2652 13.9645 17.2387 13.753 17.164C13.5415 17.0892 13.3494 16.9681 13.1908 16.8095C13.0322 16.651 12.911 16.4589 12.8362 16.2474C12.7614 16.0359 12.7348 15.8104 12.7584 15.5873Z" fill="#DC2141" fill-opacity="0.69"/>
</svg>
