<svg width="21" height="21" viewBox="0 0 21 21" fill="none" xmlns="http://www.w3.org/2000/svg">
<path d="M0 19.875C0 20.1734 0.118526 20.4595 0.329505 20.6705C0.540483 20.8815 0.826631 21 1.125 21H19.875C20.1734 21 20.4595 20.8815 20.6705 20.6705C20.8815 20.4595 21 20.1734 21 19.875V6.75H0V19.875ZM15 8.4375C15 8.38777 15.0198 8.34008 15.0549 8.30492C15.0901 8.26975 15.1378 8.25 15.1875 8.25H17.0625C17.1122 8.25 17.1599 8.26975 17.1951 8.30492C17.2302 8.34008 17.25 8.38777 17.25 8.4375V10.3125C17.25 10.3622 17.2302 10.4099 17.1951 10.4451C17.1599 10.4802 17.1122 10.5 17.0625 10.5H15.1875C15.1378 10.5 15.0901 10.4802 15.0549 10.4451C15.0198 10.4099 15 10.3622 15 10.3125V8.4375ZM15 12.1875C15 12.1378 15.0198 12.0901 15.0549 12.0549C15.0901 12.0198 15.1378 12 15.1875 12H17.0625C17.1122 12 17.1599 12.0198 17.1951 12.0549C17.2302 12.0901 17.25 12.1378 17.25 12.1875V14.0625C17.25 14.1122 17.2302 14.1599 17.1951 14.1951C17.1599 14.2302 17.1122 14.25 17.0625 14.25H15.1875C15.1378 14.25 15.0901 14.2302 15.0549 14.1951C15.0198 14.1599 15 14.1122 15 14.0625V12.1875ZM11.25 8.4375C11.25 8.38777 11.2698 8.34008 11.3049 8.30492C11.3401 8.26975 11.3878 8.25 11.4375 8.25H13.3125C13.3622 8.25 13.4099 8.26975 13.4451 8.30492C13.4802 8.34008 13.5 8.38777 13.5 8.4375V10.3125C13.5 10.3622 13.4802 10.4099 13.4451 10.4451C13.4099 10.4802 13.3622 10.5 13.3125 10.5H11.4375C11.3878 10.5 11.3401 10.4802 11.3049 10.4451C11.2698 10.4099 11.25 10.3622 11.25 10.3125V8.4375ZM11.25 12.1875C11.25 12.1378 11.2698 12.0901 11.3049 12.0549C11.3401 12.0198 11.3878 12 11.4375 12H13.3125C13.3622 12 13.4099 12.0198 13.4451 12.0549C13.4802 12.0901 13.5 12.1378 13.5 12.1875V14.0625C13.5 14.1122 13.4802 14.1599 13.4451 14.1951C13.4099 14.2302 13.3622 14.25 13.3125 14.25H11.4375C11.3878 14.25 11.3401 14.2302 11.3049 14.1951C11.2698 14.1599 11.25 14.1122 11.25 14.0625V12.1875ZM11.25 15.9375C11.25 15.8878 11.2698 15.8401 11.3049 15.8049C11.3401 15.7698 11.3878 15.75 11.4375 15.75H13.3125C13.3622 15.75 13.4099 15.7698 13.4451 15.8049C13.4802 15.8401 13.5 15.8878 13.5 15.9375V17.8125C13.5 17.8622 13.4802 17.9099 13.4451 17.9451C13.4099 17.9802 13.3622 18 13.3125 18H11.4375C11.3878 18 11.3401 17.9802 11.3049 17.9451C11.2698 17.9099 11.25 17.8622 11.25 17.8125V15.9375ZM7.5 12.1875C7.5 12.1378 7.51975 12.0901 7.55492 12.0549C7.59008 12.0198 7.63777 12 7.6875 12H9.5625C9.61223 12 9.65992 12.0198 9.69508 12.0549C9.73025 12.0901 9.75 12.1378 9.75 12.1875V14.0625C9.75 14.1122 9.73025 14.1599 9.69508 14.1951C9.65992 14.2302 9.61223 14.25 9.5625 14.25H7.6875C7.63777 14.25 7.59008 14.2302 7.55492 14.1951C7.51975 14.1599 7.5 14.1122 7.5 14.0625V12.1875ZM7.5 15.9375C7.5 15.8878 7.51975 15.8401 7.55492 15.8049C7.59008 15.7698 7.63777 15.75 7.6875 15.75H9.5625C9.61223 15.75 9.65992 15.7698 9.69508 15.8049C9.73025 15.8401 9.75 15.8878 9.75 15.9375V17.8125C9.75 17.8622 9.73025 17.9099 9.69508 17.9451C9.65992 17.9802 9.61223 18 9.5625 18H7.6875C7.63777 18 7.59008 17.9802 7.55492 17.9451C7.51975 17.9099 7.5 17.8622 7.5 17.8125V15.9375ZM3.75 12.1875C3.75 12.1378 3.76975 12.0901 3.80492 12.0549C3.84008 12.0198 3.88777 12 3.9375 12H5.8125C5.86223 12 5.90992 12.0198 5.94508 12.0549C5.98025 12.0901 6 12.1378 6 12.1875V14.0625C6 14.1122 5.98025 14.1599 5.94508 14.1951C5.90992 14.2302 5.86223 14.25 5.8125 14.25H3.9375C3.88777 14.25 3.84008 14.2302 3.80492 14.1951C3.76975 14.1599 3.75 14.1122 3.75 14.0625V12.1875ZM3.75 15.9375C3.75 15.8878 3.76975 15.8401 3.80492 15.8049C3.84008 15.7698 3.88777 15.75 3.9375 15.75H5.8125C5.86223 15.75 5.90992 15.7698 5.94508 15.8049C5.98025 15.8401 6 15.8878 6 15.9375V17.8125C6 17.8622 5.98025 17.9099 5.94508 17.9451C5.90992 17.9802 5.86223 18 5.8125 18H3.9375C3.88777 18 3.84008 17.9802 3.80492 17.9451C3.76975 17.9099 3.75 17.8622 3.75 17.8125V15.9375Z" fill="#DC2141" fill-opacity="0.69"/>
<path d="M19.875 1.5H17.2537V0H15.0037V1.5H5.99625V0H3.74625V1.5H1.125C0.977825 1.49876 0.83186 1.52666 0.695515 1.58208C0.559169 1.63751 0.435137 1.71936 0.330565 1.82293C0.225994 1.9265 0.142949 2.04974 0.0862151 2.18554C0.0294815 2.32135 0.000180323 2.46704 0 2.61422V5.25H21V2.61422C20.9998 2.46704 20.9705 2.32135 20.9138 2.18554C20.8571 2.04974 20.774 1.9265 20.6694 1.82293C20.5649 1.71936 20.4408 1.63751 20.3045 1.58208C20.1681 1.52666 20.0222 1.49876 19.875 1.5V1.5Z" fill="#DC2141" fill-opacity="0.69"/>
</svg>
