<svg width="53" height="53" viewBox="0 0 53 53" fill="none" xmlns="http://www.w3.org/2000/svg">
<path d="M26.5 46.375C26.1284 46.3741 25.7572 46.3498 25.3887 46.3021C21.9849 40.8479 20.1002 34.5832 19.9297 28.1563H49.6047C49.6444 27.608 49.6875 27.0582 49.6875 26.5C49.6875 21.914 48.3276 17.4309 45.7797 13.6177C43.2318 9.80456 39.6104 6.83256 35.3735 5.07755C31.1365 3.32255 26.4743 2.86336 21.9764 3.75805C17.4784 4.65275 13.3468 6.86114 10.104 10.104C6.86114 13.3468 4.65275 17.4784 3.75805 21.9764C2.86336 26.4743 3.32255 31.1365 5.07755 35.3735C6.83256 39.6104 9.80456 43.2318 13.6177 45.7797C17.4309 48.3276 21.914 49.6875 26.5 49.6875V46.375ZM46.2922 24.8438H36.3762C36.1981 18.7493 34.6391 12.7747 31.8166 7.37032C35.7227 8.46034 39.2025 10.7181 41.7897 13.841C44.3768 16.964 45.9478 20.803 46.2922 24.8438ZM27.6097 6.69789C31.014 12.152 32.8993 18.4167 33.0703 24.8438H19.9297C20.1007 18.4167 21.986 12.152 25.3903 6.69789C26.1281 6.60111 26.8753 6.60111 27.613 6.69789M21.1851 7.36867C18.362 12.7735 16.8024 18.7486 16.6238 24.8438H6.70782C7.05241 20.8031 8.62349 16.9642 11.2106 13.8413C13.7978 10.7183 17.2774 8.46056 21.1834 7.37032M6.70782 28.1563H16.6238C16.8021 34.2507 18.3611 40.2252 21.1834 45.6297C17.2774 44.5395 13.7978 42.2817 11.2106 39.1588C8.62349 36.0358 7.05241 32.1969 6.70782 28.1563Z" fill="white"/>
<path fill-rule="evenodd" clip-rule="evenodd" d="M41.4062 41.4062L49.6875 44.7188V41.4062L41.4062 37.2656V33.125C41.4062 32.6857 41.2318 32.2645 40.9211 31.9539C40.6105 31.6432 40.1893 31.4688 39.75 31.4688C39.3107 31.4688 38.8895 31.6432 38.5789 31.9539C38.2682 32.2645 38.0938 32.6857 38.0938 33.125V37.2656L29.8125 41.4062V44.7188L38.0938 41.4062V47.2031L34.7812 49.6875V51.3438L39.75 49.6875L44.7188 51.3438V49.6875L41.4062 47.2031V41.4062Z" fill="white"/>
</svg>
