<svg width="20" height="20" viewBox="0 0 20 20" fill="none" xmlns="http://www.w3.org/2000/svg">
<g clip-path="url(#clip0_716_4444)">
<path d="M10 0C4.47656 0 0 4.47656 0 10C0 15.5234 4.47656 20 10 20C15.5234 20 20 15.5234 20 10C20 4.47656 15.5234 0 10 0ZM10 18.125C5.51953 18.125 1.875 14.4801 1.875 10C1.875 5.51992 5.51953 1.875 10 1.875C14.4805 1.875 18.125 5.51992 18.125 10C18.125 14.4801 14.4805 18.125 10 18.125ZM9.96484 6.875C10.7875 6.875 11.5633 7.19969 12.1457 7.78828C12.5119 8.15328 13.1039 8.15937 13.4727 7.79438C13.8401 7.42938 13.8425 6.83618 13.4788 6.46743C12.5413 5.52134 11.2932 5.00024 9.96509 5.00024C9.96509 5.00024 9.96631 5.00024 9.96509 5.00024C8.63813 5.00024 7.38891 5.52134 6.45141 6.46743C4.52016 8.41587 4.52016 11.5846 6.45141 13.5338C7.38891 14.4799 8.63813 15.001 9.96509 15.001C9.96631 15.001 9.96509 15.001 9.96509 15.001C11.2932 15.001 12.5413 14.4799 13.4788 13.5338C13.8425 13.1652 13.8401 12.5721 13.4727 12.2069C13.104 11.8431 12.5121 11.8468 12.1457 12.213C11.5633 12.8013 10.7875 13.1263 9.96484 13.1263C9.96484 13.1263 9.96607 13.1263 9.96484 13.1263C9.14102 13.1263 8.36523 12.8016 7.78164 12.213C6.57305 10.9935 6.57305 9.00869 7.78164 7.7872C8.36719 7.19922 9.14063 6.875 9.96484 6.875Z" fill="#DC2141" fill-opacity="0.69"/>
</g>
<defs>
<clipPath id="clip0_716_4444">
<rect width="20" height="20" fill="white"/>
</clipPath>
</defs>
</svg>
