<?xml version="1.0" encoding="UTF-8"?>
<svg id="Layer_1" data-name="Layer 1" xmlns="http://www.w3.org/2000/svg" viewBox="0 0 1200 1200">
  <defs>
    <style>
      .cls-1 {
        fill: #fff;
      }

      .cls-1, .cls-2, .cls-3, .cls-4, .cls-5 {
        stroke-width: 0px;
      }

      .cls-2 {
        fill: #a6383b;
      }

      .cls-3 {
        fill: #132031;
      }

      .cls-4 {
        fill: #aa8900;
      }

      .cls-5 {
        fill: #c5a388;
      }
    </style>
  </defs>
  <rect class="cls-2" x="140.35" y="583.7" width="919.29" height="317.72"/>
  <path class="cls-1" d="m774.55,825.43v37.53c0,20.34-13.2,34.84-31.5,39.83h-286.1c-18.3-4.98-31.5-19.49-31.5-39.83v-37.53h349.1Z"/>
  <rect class="cls-3" x="467.66" y="261.04" width="264.67" height="875.07" transform="translate(1298.58 98.58) rotate(90)"/>
  <path class="cls-1" d="m363.34,750.69c11.49-6.93,17.25-17.75,17.25-32.44,0-.5-.01-1.01-.03-1.5-.3-10.84-3.95-19.34-10.95-25.53-7.28-6.42-16.07-9.62-26.38-9.62h-38.58v107.03h19.82v-31.52h15.05c.57,0,2.52-.09,5.85-.28l18.55,31.8h20.45l.57-1.01-21.59-36.93Zm-9.45-17.22c-4.35,3.69-10.06,5.53-17.15,5.53h-12.26v-39.29h14.9c6.28,0,11.35,1.66,15.23,4.96,3.45,2.94,5.36,6.97,5.73,12.09.05.62.08,1.26.08,1.92,0,6.18-2.17,11.11-6.52,14.79Z"/>
  <path class="cls-1" d="m400.06,681.6v107.03h19.9v-107.03h-19.9Z"/>
  <path class="cls-1" d="m578.69,729.02l-5.78-2.93c-1.56-.9-3.29-1.83-5.17-2.77-1.87-.95-3.43-1.82-4.67-2.57-1.9-1.15-3.67-2.48-5.34-3.99-.46-.41-.91-.85-1.37-1.29-1.75-1.76-2.64-3.75-2.64-5.99,0-3.13,1.15-5.62,3.46-7.45,2.31-1.83,5.25-2.74,8.82-2.74,6.08,0,12.06,3.02,17.96,9.05l14.33-13.76c-8.07-9.65-18.65-14.48-31.72-14.48-9.65,0-17.52,2.69-23.61,8.06-6.12,5.28-9.2,12.43-9.2,21.46,0,2.45.36,4.84,1.07,7.13,2.69,8.71,10.51,16.28,23.46,22.67,4.94,2.57,8.76,4.61,11.48,6.14,2.52,1.23,5.16,3.23,7.91,5.99,2.7,2.56,4.06,5.18,4.06,7.83,0,3.23-1.31,5.95-3.95,8.13-2.64,2.2-5.98,3.29-10.02,3.29-9.03,0-16.97-4.08-23.81-12.26l-14.48,14.04c4.23,5.38,9.64,9.64,16.21,12.77,6.59,3.14,13.85,4.71,21.79,4.71,10.35,0,18.68-2.85,24.95-8.55,6.23-5.66,9.35-12.94,9.35-21.82,0-12.22-7.7-22.44-23.11-30.66Z"/>
  <path class="cls-1" d="m609.71,681.6v19.54h34.58v87.49h19.9v-87.49h34.57v-19.54h-89.05Z"/>
  <path class="cls-1" d="m763.18,715.84l-17.7-36.65h-1.29l-17.67,36.65-34.16,70.87.72,1.01h20.03l7.56-17.41h47.92l7.62,17.41h20.4l.78-1.01-34.21-70.87Zm-34.45,36.36l15.91-36.36,15.89,36.36h-31.8Z"/>
  <path class="cls-1" d="m791.12,681.6v19.54h34.57v87.49h19.9v-87.49h34.59v-19.54h-89.05Z"/>
  <path class="cls-1" d="m913.83,700.57h43.98v-18.97h-63.81v107.03h63.81v-18.97h-43.98v-22.24h36.72v-18.04h-36.72v-28.81Z"/>
  <polygon class="cls-1" points="488.06 739.45 490.49 753.66 477.73 746.95 464.96 753.66 467.4 739.45 457.07 729.38 471.34 727.3 472.81 724.33 477.73 714.37 482.64 724.33 484.11 727.3 498.39 729.38 488.06 739.45"/>
  <g>
    <path class="cls-4" d="m1059.65,847.6v12.81h-265.46c0-7.07,5.74-12.81,12.81-12.81h252.65Z"/>
    <path class="cls-4" d="m140.35,847.6v12.81h265.46c0-7.07-5.74-12.81-12.81-12.81h-252.65Z"/>
  </g>
  <path class="cls-1" d="m207.58,632.34c0,11.65,14.98,21.1,26.64,21.1h25.98v135.19h21.49v-135.19h676.13c11.65,0,21.1-9.45,21.1-21.1H207.58Z"/>
  <g>
    <path class="cls-3" d="m483.94,877.07c4.61,0,8.45-1.79,11.52-5.36l5.98,5.71c-4.73,5.15-10.61,7.72-17.64,7.72-6.15,0-11.37-2.15-15.67-6.45s-6.39-9.69-6.39-16.29,2.13-11.88,6.39-16.14c4.3-4.36,9.67-6.54,16.11-6.54s11.89,2.28,16.23,6.83l-5.98,5.66c-2.81-2.93-6.2-4.39-10.19-4.39s-7.46,1.42-10.19,4.27c-2.69,2.81-4.04,6.24-4.04,10.31s1.33,7.51,3.98,10.4c2.67,2.85,5.97,4.27,9.9,4.27Z"/>
    <path class="cls-3" d="m540.64,885.14c-6.46,0-11.81-2.15-16.05-6.45-4.22-4.34-6.33-9.75-6.33-16.23s2.11-11.7,6.33-16.14c4.26-4.4,9.69-6.6,16.29-6.6s11.91,2.2,16.05,6.6c4.14,4.32,6.21,9.68,6.21,16.08s-2.11,11.73-6.33,16.17c-4.18,4.38-9.57,6.57-16.17,6.57Zm14.17-22.68c0-4.28-1.33-7.77-3.98-10.48-2.65-2.77-6.03-4.15-10.13-4.15s-7.36,1.38-10.07,4.15c-2.69,2.75-4.04,6.24-4.04,10.48s1.34,7.59,4.04,10.4c2.69,2.81,6.05,4.21,10.07,4.21s7.32-1.4,10.01-4.21c2.73-2.85,4.09-6.31,4.09-10.4Z"/>
    <path class="cls-3" d="m600.46,839.73h.53l21.44,44.41-.32.41h-8.42l-3.15-7.19h-19.79l-3.12,7.19h-8.28l-.29-.41,21.41-44.41Zm.18,15.14l-6.57,15.02h13.14l-6.57-15.02Z"/>
    <path class="cls-3" d="m660.54,877.07c4.61,0,8.45-1.79,11.52-5.36l5.98,5.71c-4.73,5.15-10.61,7.72-17.64,7.72-6.15,0-11.37-2.15-15.67-6.45s-6.39-9.69-6.39-16.29,2.13-11.88,6.39-16.14c4.3-4.36,9.67-6.54,16.11-6.54s11.89,2.28,16.23,6.83l-5.98,5.66c-2.81-2.93-6.2-4.39-10.19-4.39s-7.46,1.42-10.19,4.27c-2.69,2.81-4.04,6.24-4.04,10.31s1.33,7.51,3.98,10.4c2.67,2.85,5.97,4.27,9.9,4.27Z"/>
    <path class="cls-3" d="m707.25,884.55h-8.19v-44.21h8.19v19.73h22.83v-19.73h8.19v44.21h-8.19v-16.41h-22.83v16.41Z"/>
  </g>
  <path class="cls-3" d="m294.59,516.33v87.04h490.37v-87.04h-490.37Z"/>
  <path class="cls-5" d="m189.84,590.29v-94.62l588.49-45.16,214.32,68.81.57,46.92c15.8,7.43,3.25,36.95-8.45,36.95h-206.44v-43.01c-2.87-10.75-11.47-32.26-40.86-30.11-23.51,1.72-34.41,22.76-34.41,37.55v35.56h-259.48v-39.42l-10.04-27.95h-93.9l-30.11,11.47v55.91h-101.78c-11.47,0-16.73-8.6-17.92-12.9Z"/>
  <path class="cls-1" d="m295.92,580.25h13.62c-.89-18.39,10.75-30.11,17.2-33.69,25.8-13.19,43.25,6.45,48.74,17.92,6.88-18.92,21.62-23.65,30.11-23.65,31.61,0,38.47,26.76,37.99,39.43h14.34c0-25.81-11.95-39.9-17.92-43.73,100.59-4.78,294.42-15.15,308.22-13.62,11.74,1.3,16.52,5.12,22.94,12.9,5.68,6.88,6.61,18.02,6.61,23.04l.5,21.8,23.81,1-5.11-35.81-20.79-35.84h-34.41c-120.42,5.02-370.15,16.34-405.7,21.5-35.55,5.16-41.57,34.65-40.14,48.74Z"/>
  <path class="cls-1" d="m242.88,502.12c-6.31-4.01-2.63-8.36,0-10.04l536.88-43.01,31.54,25.09,57.34,42.29,124.72,15.05v14.34c-13.62,0-68.67-4.44-111.1-7.88-53.05-4.3-63.8-32.26-85.3-53.04-17.07-16.49-34.22-16.91-49.1-17.27h-.37c-14.96-.37-504.62,34.48-504.62,34.48Z"/>
  <path class="cls-2" d="m189.84,495.67v-14.34l601.39-46.59,82.43,67.38,119.71,16.49v15.77c-10.04,0-69.53-1.78-124.01-11.47-32.25-5.73-47.95-32.15-65.23-50.18-15.83-16.51-45.1-17.37-57.18-16.61-147.76,9.29-557.11,39.55-557.11,39.55Z"/>
  <path class="cls-3" d="m189.84,481.33v-84.58c1.15-2.87,2.87-4.06,3.58-4.3l626.48-78.13,139.06,24.37c30.1,100.35,33.69,158.41,33.69,158.41l.72,21.5c-86.02-5.73-108.95-8.1-135.48-17.92-6.45-2.39-19.78-16.19-40.14-36.56-22.93-22.94-46.59-22.94-65.94-22.94-11.65,0-23.5,1.68-35.12,2.51l-526.85,37.63Z"/>
  <path class="cls-4" d="m299.51,517.17c-12.62,5.73-9.08,13.38-5.73,16.49,130.93-6.93,403.84-21.22,448-22.94,55.2-2.15,48.75,62.36,50.9,65.95,2.15,3.58,3.58,5.02,8.6,5.02,4.01,0,5.97-3.35,6.45-5.02l-1.43-20.07c-5.73-51.61-28.43-63.56-88.88-60.93l-417.89,21.5Z"/>
  <ellipse class="cls-1" cx="345.24" cy="583.16" rx="16.54" ry="19.8"/>
  <ellipse class="cls-1" cx="408.39" cy="583.16" rx="16.54" ry="19.8"/>
  <ellipse class="cls-1" cx="740.93" cy="581.66" rx="20.8" ry="22.8"/>
  <ellipse class="cls-2" cx="345.38" cy="583.84" rx="9.32" ry="10.75"/>
  <ellipse class="cls-2" cx="408.46" cy="583.84" rx="9.32" ry="10.75"/>
  <ellipse class="cls-2" cx="741.77" cy="581.69" rx="11.47" ry="12.9"/>
  <path class="cls-2" d="m837.82,298.55c-11.47-2.29-18.77-1.02-21.51-.72,14.76-1.64,29.21,13.65,33.78,21.78l108.86,19.08c-4.59-16.06-17.21-21.98-22.94-22.94-27.96-4.78-86.73-14.91-98.2-17.2Z"/>
  <path class="cls-1" d="m790.52,365.21v-11.47l53.76-4.3c-2.3-29.82-19.59-36.32-27.96-35.84l-625.04,80.28c1.72-13.19,10.75-18.4,15.05-19.35,190.67-25.09,579.6-75.55,609.99-76.7,30.39-1.15,40.86,33.93,42.29,51.61,2.65,0,8.22,0,16.49,1.43,11.52,2,18.63,11.47,18.63,20.67v45.99c0,6.88-2.87,12.9-4.3,15.05-3.11,2.63-11.18,7.45-18.64,5.73-7.45-1.72-11.23-8.36-12.18-11.47l-8.6-49.46h6.45c4.01,0,6.45,1.91,7.17,2.87l7.17,31.25c1.61,9.76,2.81,20.27,9.98,18.12,14.03-4.21,6.75-11.62,1.49-14.24v-40.86c0-10.89-9.56-12.66-14.34-12.19l-77.41,2.87Z"/>
  <path class="cls-2" d="m1021.2,367.83h-8.85c-4.67,0-8.46,3.79-8.46,8.46v50.22c0,4.67,3.78,8.46,8.46,8.46h8.85c4.67,0,8.46-3.79,8.46-8.46v-50.22c0-4.67-3.78-8.46-8.46-8.46Z"/>
  <path class="cls-3" d="m1005.55,359.48h-40.68l4.12,17.2h24.37c8.02,0,10.51,3.34,10.75,5.02v42.29c0,10.13,10.75,10.29,10.75,0v-55.91c0-6.88-6.21-8.6-9.32-8.6Z"/>
  <path class="cls-3" d="m908.78,563.05l-10.03,9.32,101.79,5.02c0-6.88-4-10.19-6.39-11.15l-85.36-3.19Z"/>
  <path class="cls-1" d="m993.37,558.75v7.46l-116.84-4.36v21.27c-5.16,6.88-9.8,2.87-11.47,0v-26.52c0-3.44,2.87-4.3,4.3-4.3l124.01,6.45Z"/>
  <path class="cls-3" d="m875.1,544.41c0,4.59-3.82,7.17-5.73,7.88l124.01,6.45-.16-6.91-118.12-7.42Z"/>
  <path class="cls-3" d="m264.62,575.26l-74.78,3.56v-12.58l76.21-3.88c6.31,4.59,1.67,10.52-1.43,12.9Z"/>
  <path class="cls-3" d="m189.84,544.41v12.9l85.3-5.02c8.6-.72,8.6-12.9,0-12.19l-85.3,4.3Z"/>
  <path class="cls-2" d="m872.23,380.98c0-12.04-3.82-17.44-5.74-18.64,12.89-1.02,15.77,5.95,15.77,10.03v43.01c5.97,2.15,8.6,8.6,5.02,13.62-7.17,6.45-16.01,1.43-15.77-7.17.24-8.6.72-28.82.72-40.86Z"/>
</svg>