<svg width="52" height="52" viewBox="0 0 52 52" fill="none" xmlns="http://www.w3.org/2000/svg">
<path d="M26.845 4.875V4.0625C26.845 3.6075 26.4875 3.25 26.0325 3.25C25.5775 3.25 25.22 3.6075 25.22 4.0625V4.875H24.4075C23.9525 4.875 23.595 5.2325 23.595 5.6875C23.595 6.1425 23.9525 6.5 24.4075 6.5H25.22V9.88325C24.9925 9.96125 24.7731 10.075 24.57 10.2213L14.9987 17.0462C14.6412 17.3062 14.43 17.7125 14.43 18.1512C14.4345 18.3723 14.492 18.589 14.5976 18.7832C14.7032 18.9774 14.8539 19.1434 15.037 19.2673C15.2201 19.3912 15.4303 19.4693 15.6498 19.4951C15.8694 19.5209 16.0919 19.4936 16.2987 19.4155V28.6829L3.91625 36.4162C3.52625 36.66 3.29875 37.0662 3.29875 37.5213H3.2825V37.7C3.2825 38.7238 4.42 39.3575 5.28125 38.805L6.54875 38.0039V45.4837H5.4275C4.225 45.4837 3.25 46.4588 3.25 47.6613V48.7337H6.54875V48.75H45.5488V48.7337H48.7988V47.6613C48.7988 46.4588 47.8237 45.4837 46.6213 45.4837H45.5488V37.8463L46.8 38.6263C47.0931 38.8094 47.4469 38.8687 47.7836 38.7909C48.1204 38.7132 48.4125 38.5049 48.5956 38.2119C48.7788 37.9188 48.838 37.565 48.7603 37.2282C48.6826 36.8915 48.4743 36.5994 48.1812 36.4162L35.7988 28.6715V19.4155C36.0037 19.4949 36.2249 19.5231 36.4431 19.4975C36.6614 19.472 36.8701 19.3935 37.0511 19.2689C37.2321 19.1442 37.3799 18.9773 37.4817 18.7825C37.5835 18.5877 37.6361 18.371 37.635 18.1512C37.635 17.7125 37.4237 17.3062 37.0662 17.0462L27.495 10.2213C27.2919 10.075 27.0725 9.96125 26.845 9.88325V6.5H27.6575C28.1125 6.5 28.47 6.1425 28.47 5.6875C28.47 5.24875 28.0963 4.875 27.6575 4.875H26.845ZM29.2988 24.6058L28.3075 23.985C26.9425 23.1238 25.2038 23.1238 23.8225 23.985L22.7987 24.6236V21.125C22.7987 19.3375 24.2613 17.875 26.0488 17.875C27.8363 17.875 29.2988 19.3375 29.2988 21.125V24.6058ZM37.6512 39.9425V45.4837H32.5163V39.9425C32.5163 38.5288 33.67 37.375 35.0837 37.375C36.4975 37.375 37.6512 38.5288 37.6512 39.9425ZM29.2988 35.75V45.4837H22.7987V35.75C22.7987 33.9625 24.2613 32.5 26.0488 32.5C27.8363 32.5 29.2988 33.9625 29.2988 35.75ZM19.5325 39.9263V45.4837H14.4463V39.9263C14.4463 38.5125 15.5837 37.375 16.9975 37.375C18.4113 37.375 19.5487 38.5125 19.5487 39.9263H19.5325Z" fill="white"/>
</svg>
