<svg width="54" height="54" viewBox="0 0 54 54" fill="none" xmlns="http://www.w3.org/2000/svg">
<path d="M28.6301 28.6875H35.4949C36.3943 28.6875 37.125 27.9619 37.125 27.0675V18.495C37.125 17.6006 36.3943 16.875 35.4949 16.875H28.6301C28.1993 16.8741 27.7857 17.0442 27.48 17.3479C27.1744 17.6516 27.0018 18.0641 27 18.495V27.0675C27 27.9619 27.7307 28.6875 28.6301 28.6875ZM21.9375 31.2188C21.9375 31.6913 22.3088 32.0625 22.7812 32.0625H24.4688C24.9413 32.0625 25.3125 31.6913 25.3125 31.2188C25.3125 30.7463 24.9413 30.375 24.4688 30.375H22.7812C22.3088 30.375 21.9375 30.7463 21.9375 31.2188ZM32.9062 32.0625H31.2188C30.7463 32.0625 30.375 31.6913 30.375 31.2188C30.375 30.7463 30.7463 30.375 31.2188 30.375H32.9062C33.3787 30.375 33.75 30.7463 33.75 31.2188C33.75 31.6913 33.3787 32.0625 32.9062 32.0625Z" fill="white"/>
<path d="M23.625 8.4375H42.1875C42.6351 8.4375 43.0643 8.61529 43.3807 8.93176C43.6972 9.24823 43.875 9.67745 43.875 10.125V11.8125H45.6469C47.4862 11.8125 48.9375 13.3059 48.9375 15.1031V25.3125H51.4519C51.9244 25.3125 52.3125 25.7006 52.3125 26.1731V37.9519C52.2956 38.4412 51.9244 38.8125 51.4519 38.8125H48.9375V40.5H49.1569C49.9669 40.5 50.6081 41.1581 50.625 41.9681V44.0944C50.625 44.9044 49.9669 45.5625 49.1569 45.5625H43.7991C43.5985 46.9704 42.8966 48.2586 41.8225 49.1905C40.7483 50.1225 39.374 50.6356 37.9519 50.6356C36.5298 50.6356 35.1554 50.1225 34.0813 49.1905C33.0071 48.2586 32.3053 46.9704 32.1047 45.5625H20.1741C19.9735 46.9704 19.2716 48.2586 18.1975 49.1905C17.1233 50.1225 15.749 50.6356 14.3269 50.6356C12.9048 50.6356 11.5304 50.1225 10.4563 49.1905C9.38214 48.2586 8.6803 46.9704 8.47969 45.5625H3.15562C2.96283 45.5625 2.77192 45.5245 2.5938 45.4507C2.41568 45.377 2.25383 45.2688 2.1175 45.1325C1.98118 44.9962 1.87303 44.8343 1.79925 44.6562C1.72547 44.4781 1.6875 44.2872 1.6875 44.0944V41.9681C1.6875 41.1581 2.34563 40.5 3.15562 40.5H3.375V30.375C3.375 29.0081 3.58594 27.567 4.62037 26.541C5.65312 25.5184 7.09425 25.3125 8.45438 25.3125H10.7865L16.6151 13.6401C16.8883 13.0928 17.3081 12.6321 17.8278 12.3094C18.3474 11.9867 18.9464 11.8147 19.5581 11.8125H21.9375V10.125C21.9375 9.67745 22.1153 9.24823 22.4318 8.93176C22.7482 8.61529 23.1774 8.4375 23.625 8.4375ZM14.3269 38.8125C15.9367 38.8125 17.3947 39.4554 18.4612 40.5H33.8175C34.884 39.4554 36.342 38.8125 37.9519 38.8125C39.5617 38.8125 41.0198 39.4554 42.0863 40.5H45.5625V37.125H44.8031C43.4379 37.125 42.2584 36.0787 42.1909 34.7119C42.1234 33.2606 43.2878 32.0625 44.7188 32.0625H45.5625V28.6875H42.12C41.9073 28.6875 41.6966 28.6456 41.5001 28.5642C41.3035 28.4828 41.1249 28.3634 40.9745 28.213C40.8241 28.0626 40.7047 27.884 40.6233 27.6874C40.5419 27.4909 40.5 27.2802 40.5 27.0675V18.495C40.5 17.6006 41.2256 16.875 42.12 16.875H45.5625V15.1875H19.6138L18.7701 16.875H21.9864C22.8909 16.875 23.625 17.6006 23.625 18.495V27.0675C23.625 27.9619 22.8909 28.6875 21.9881 28.6875H8.45438C7.28325 28.6875 7.03012 28.9035 6.99806 28.9356C6.96937 28.9642 6.75 29.2106 6.75 30.375V32.0625H8.4375C9.36562 32.0625 10.125 32.8219 10.125 33.75V35.4375C10.125 36.3656 9.36562 37.125 8.4375 37.125H6.75V40.5H10.1925C11.259 39.4554 12.717 38.8125 14.3269 38.8125ZM42.1875 11.8125V10.125H23.625V11.8125H42.1875ZM14.3438 47.25C15.0151 47.25 15.6589 46.9833 16.1336 46.5086C16.6083 46.0339 16.875 45.3901 16.875 44.7188C16.875 44.0474 16.6083 43.4036 16.1336 42.9289C15.6589 42.4542 15.0151 42.1875 14.3438 42.1875C13.6724 42.1875 13.0286 42.4542 12.5539 42.9289C12.0792 43.4036 11.8125 44.0474 11.8125 44.7188C11.8125 45.3901 12.0792 46.0339 12.5539 46.5086C13.0286 46.9833 13.6724 47.25 14.3438 47.25ZM37.9688 47.25C38.6401 47.25 39.2839 46.9833 39.7586 46.5086C40.2333 46.0339 40.5 45.3901 40.5 44.7188C40.5 44.0474 40.2333 43.4036 39.7586 42.9289C39.2839 42.4542 38.6401 42.1875 37.9688 42.1875C37.2974 42.1875 36.6536 42.4542 36.1789 42.9289C35.7042 43.4036 35.4375 44.0474 35.4375 44.7188C35.4375 45.3901 35.7042 46.0339 36.1789 46.5086C36.6536 46.9833 37.2974 47.25 37.9688 47.25Z" fill="white"/>
</svg>
