<svg width="51" height="51" viewBox="0 0 51 51" fill="none" xmlns="http://www.w3.org/2000/svg">
<path d="M28.5907 1.99335C24.6927 2.04116 20.6488 3.51707 16.9364 6.5692H24.952V10.8711C30.2074 7.90775 36.3664 7.72467 41.2817 10.8741L39.47 11.8423L45.9136 16.8945L45.54 8.59565L42.9096 10.0027C39.4441 4.8613 34.3688 2.05749 28.9769 1.99335C28.8482 1.9918 28.7196 1.9918 28.5909 1.99335H28.5907ZM1.89539 8.4306V29.6225H23.0905V8.4306H1.89558H1.89539ZM6.90394 11.0234H20.4974V24.8631H18.6329V12.885H6.90404V11.0235L6.90394 11.0234ZM7.23704 14.8211L16.2112 23.9698L14.8821 25.274L5.90785 16.1254L7.23704 14.8211ZM27.8219 20.972V42.1671H49.0138V20.9722H27.8219V20.972ZM32.8273 23.5682H46.4209V37.4045H44.5596V25.4294H32.8276L32.8274 23.5681L32.8273 23.5682ZM33.1604 27.3628L42.1377 36.5144L40.8087 37.8155L31.8314 28.6669L33.1605 27.3629L33.1604 27.3628ZM5.41618 33.7035L5.78971 42.0022L8.11181 40.76C14.1807 49.5891 25.0444 51.3669 33.9729 44.0286H25.9604V39.7267C20.7728 42.6532 14.7046 42.8688 9.82071 39.845L11.8563 38.7555L5.41618 33.7035Z" fill="white"/>
</svg>
