<svg width="64" height="64" viewBox="0 0 64 64" fill="none" xmlns="http://www.w3.org/2000/svg">
<g filter="url(#filter0_dd_1_1956)">
<circle cx="32" cy="28" r="28" fill="#A13D3D"/>
<path d="M24.8267 26.3867C26.7467 30.16 29.84 33.2533 33.6133 35.1733L36.5467 32.24C36.92 31.8667 37.44 31.76 37.9067 31.9067C39.4 32.4 41 32.6667 42.6667 32.6667C43.0203 32.6667 43.3594 32.8071 43.6095 33.0572C43.8595 33.3072 44 33.6464 44 34V38.6667C44 39.0203 43.8595 39.3594 43.6095 39.6095C43.3594 39.8595 43.0203 40 42.6667 40C36.6551 40 30.8897 37.6119 26.6389 33.3611C22.3881 29.1103 20 23.3449 20 17.3333C20 16.9797 20.1405 16.6406 20.3905 16.3905C20.6406 16.1405 20.9797 16 21.3333 16H26C26.3536 16 26.6928 16.1405 26.9428 16.3905C27.1929 16.6406 27.3333 16.9797 27.3333 17.3333C27.3333 19 27.6 20.6 28.0933 22.0933C28.24 22.56 28.1333 23.08 27.76 23.4533L24.8267 26.3867Z" fill="white"/>
</g>
<defs>
<filter id="filter0_dd_1_1956" x="0" y="0" width="64" height="64" filterUnits="userSpaceOnUse" color-interpolation-filters="sRGB">
<feFlood flood-opacity="0" result="BackgroundImageFix"/>
<feColorMatrix in="SourceAlpha" type="matrix" values="0 0 0 0 0 0 0 0 0 0 0 0 0 0 0 0 0 0 127 0" result="hardAlpha"/>
<feOffset dy="4"/>
<feGaussianBlur stdDeviation="2"/>
<feComposite in2="hardAlpha" operator="out"/>
<feColorMatrix type="matrix" values="0 0 0 0 0 0 0 0 0 0 0 0 0 0 0 0 0 0 0.25 0"/>
<feBlend mode="normal" in2="BackgroundImageFix" result="effect1_dropShadow_1_1956"/>
<feColorMatrix in="SourceAlpha" type="matrix" values="0 0 0 0 0 0 0 0 0 0 0 0 0 0 0 0 0 0 127 0" result="hardAlpha"/>
<feOffset dy="4"/>
<feGaussianBlur stdDeviation="2"/>
<feComposite in2="hardAlpha" operator="out"/>
<feColorMatrix type="matrix" values="0 0 0 0 0 0 0 0 0 0 0 0 0 0 0 0 0 0 0.25 0"/>
<feBlend mode="normal" in2="effect1_dropShadow_1_1956" result="effect2_dropShadow_1_1956"/>
<feBlend mode="normal" in="SourceGraphic" in2="effect2_dropShadow_1_1956" result="shape"/>
</filter>
</defs>
</svg>
