<svg width="64" height="64" viewBox="0 0 64 64" fill="none" xmlns="http://www.w3.org/2000/svg">
<g filter="url(#filter0_dd_1_1952)">
<circle cx="32" cy="28" r="28" fill="#A13D3D"/>
<path d="M31.9997 27.4168C31.2261 27.4168 30.4843 27.1095 29.9373 26.5626C29.3903 26.0156 29.083 25.2737 29.083 24.5002C29.083 23.7266 29.3903 22.9847 29.9373 22.4378C30.4843 21.8908 31.2261 21.5835 31.9997 21.5835C32.7732 21.5835 33.5151 21.8908 34.0621 22.4378C34.6091 22.9847 34.9163 23.7266 34.9163 24.5002C34.9163 24.8832 34.8409 25.2625 34.6943 25.6163C34.5477 25.9702 34.3329 26.2917 34.0621 26.5626C33.7912 26.8334 33.4697 27.0482 33.1158 27.1948C32.762 27.3414 32.3827 27.4168 31.9997 27.4168ZM31.9997 16.3335C29.8337 16.3335 27.7565 17.1939 26.225 18.7255C24.6934 20.257 23.833 22.3342 23.833 24.5002C23.833 30.6252 31.9997 39.6668 31.9997 39.6668C31.9997 39.6668 40.1663 30.6252 40.1663 24.5002C40.1663 22.3342 39.3059 20.257 37.7744 18.7255C36.2428 17.1939 34.1656 16.3335 31.9997 16.3335Z" fill="white"/>
</g>
<defs>
<filter id="filter0_dd_1_1952" x="0" y="0" width="64" height="64" filterUnits="userSpaceOnUse" color-interpolation-filters="sRGB">
<feFlood flood-opacity="0" result="BackgroundImageFix"/>
<feColorMatrix in="SourceAlpha" type="matrix" values="0 0 0 0 0 0 0 0 0 0 0 0 0 0 0 0 0 0 127 0" result="hardAlpha"/>
<feOffset dy="4"/>
<feGaussianBlur stdDeviation="2"/>
<feComposite in2="hardAlpha" operator="out"/>
<feColorMatrix type="matrix" values="0 0 0 0 0 0 0 0 0 0 0 0 0 0 0 0 0 0 0.25 0"/>
<feBlend mode="normal" in2="BackgroundImageFix" result="effect1_dropShadow_1_1952"/>
<feColorMatrix in="SourceAlpha" type="matrix" values="0 0 0 0 0 0 0 0 0 0 0 0 0 0 0 0 0 0 127 0" result="hardAlpha"/>
<feOffset dy="4"/>
<feGaussianBlur stdDeviation="2"/>
<feComposite in2="hardAlpha" operator="out"/>
<feColorMatrix type="matrix" values="0 0 0 0 0 0 0 0 0 0 0 0 0 0 0 0 0 0 0.25 0"/>
<feBlend mode="normal" in2="effect1_dropShadow_1_1952" result="effect2_dropShadow_1_1952"/>
<feBlend mode="normal" in="SourceGraphic" in2="effect2_dropShadow_1_1952" result="shape"/>
</filter>
</defs>
</svg>
