<svg width="44" height="44" viewBox="0 0 44 44" fill="none" xmlns="http://www.w3.org/2000/svg">
<path d="M7.33329 36.6667C6.32496 36.6667 5.46207 36.308 4.74463 35.5905C4.02718 34.8731 3.66785 34.0096 3.66663 33V25.6667H12.8333V27.5H16.5V25.6667H27.5V27.5H31.1666V25.6667H40.3333V33C40.3333 34.0083 39.9746 34.8718 39.2571 35.5905C38.5397 36.3092 37.6762 36.6679 36.6666 36.6667H7.33329ZM4.44579 22L8.24996 13.2C8.52496 12.5278 8.96801 11.9931 9.57913 11.5958C10.1902 11.1986 10.8472 11 11.55 11H12.8333V9.16667C12.8333 8.15834 13.1926 7.29484 13.9113 6.57617C14.63 5.8575 15.4928 5.49878 16.5 5.5H27.5C28.5083 5.5 29.3718 5.85934 30.0905 6.578C30.8091 7.29667 31.1678 8.15956 31.1666 9.16667V11H32.45C33.1527 11 33.8097 11.1986 34.4208 11.5958C35.0319 11.9931 35.475 12.5278 35.75 13.2L39.5541 22H31.1666V20.1667H27.5V22H16.5V20.1667H12.8333V22H4.44579ZM16.5 11H27.5V9.16667H16.5V11Z" fill="white"/>
</svg>
