<svg width="41" height="41" viewBox="0 0 41 41" fill="none" xmlns="http://www.w3.org/2000/svg">
<path d="M17.0837 36.4728V26.7353L19.4753 19.9019C19.6177 19.5887 19.8244 19.3256 20.0954 19.1127C20.3665 18.8997 20.7008 18.7926 21.0982 18.7915H33.5691C33.9677 18.7915 34.3025 18.8986 34.5736 19.1127C34.8446 19.3268 35.0508 19.5899 35.192 19.9019L37.5837 26.7353V36.4728C37.5837 36.7859 37.4772 37.0496 37.2642 37.2637C37.0512 37.4778 36.7876 37.5843 36.4732 37.5832H35.2774C34.9642 37.5832 34.7011 37.4767 34.4882 37.2637C34.2752 37.0507 34.1681 36.7871 34.167 36.4728V35.0207H20.5003V36.4728C20.5003 36.7859 20.3938 37.0496 20.1809 37.2637C19.9679 37.4778 19.7042 37.5843 19.3899 37.5832H18.1941C17.8809 37.5832 17.6178 37.4767 17.4048 37.2637C17.1919 37.0507 17.0848 36.7871 17.0837 36.4728ZM20.5003 24.7707H34.167L32.9712 21.354H21.6962L20.5003 24.7707ZM22.2087 31.604C22.6927 31.604 23.0987 31.44 23.4267 31.112C23.7547 30.784 23.9181 30.3786 23.917 29.8957C23.917 29.4116 23.753 29.0062 23.425 28.6793C23.097 28.3525 22.6915 28.1885 22.2087 28.1873C21.7246 28.1873 21.3192 28.3513 20.9923 28.6793C20.6655 29.0073 20.5015 29.4128 20.5003 29.8957C20.5003 30.3797 20.6643 30.7857 20.9923 31.1137C21.3203 31.4417 21.7258 31.6051 22.2087 31.604ZM32.4587 31.604C32.9427 31.604 33.3487 31.44 33.6767 31.112C34.0047 30.784 34.1681 30.3786 34.167 29.8957C34.167 29.4116 34.003 29.0062 33.675 28.6793C33.347 28.3525 32.9415 28.1885 32.4587 28.1873C31.9746 28.1873 31.5692 28.3513 31.2423 28.6793C30.9155 29.0073 30.7515 29.4128 30.7503 29.8957C30.7503 30.3797 30.9143 30.7857 31.2423 31.1137C31.5703 31.4417 31.9758 31.6051 32.4587 31.604ZM10.2503 23.9165V20.4998H13.667V23.9165H10.2503ZM18.792 13.6665V10.2498H22.2087V13.6665H18.792ZM10.2503 30.7498V27.3332H13.667V30.7498H10.2503ZM10.2503 37.5832V34.1665H13.667V37.5832H10.2503ZM3.41699 37.5832V13.6665H11.9587V3.4165H29.042V15.3748H25.6253V6.83317H15.3753V17.0832H6.83366V37.5832H3.41699Z" fill="white"/>
</svg>
