<svg width="24" height="24" viewBox="0 0 24 24" fill="none" xmlns="http://www.w3.org/2000/svg">
<path d="M14.885 18C14.3003 18 13.8013 17.7933 13.388 17.38C12.9753 16.968 12.769 16.4697 12.769 15.885C12.769 15.3003 12.9757 14.8013 13.389 14.388C13.8017 13.9753 14.3003 13.769 14.885 13.769C15.4697 13.769 15.9683 13.9757 16.381 14.389C16.7937 14.8017 17 15.3003 17 15.885C17 16.4697 16.7933 16.9683 16.38 17.381C15.968 17.7937 15.4697 18 14.885 18ZM5.615 21C5.155 21 4.771 20.846 4.463 20.538C4.15433 20.2293 4 19.845 4 19.385V6.615C4 6.155 4.15433 5.771 4.463 5.463C4.771 5.15433 5.155 5 5.615 5H7.385V2.77H8.462V5H15.615V2.77H16.615V5H18.385C18.845 5 19.229 5.15433 19.537 5.463C19.8457 5.771 20 6.155 20 6.615V19.385C20 19.845 19.846 20.229 19.538 20.537C19.2293 20.8457 18.845 21 18.385 21H5.615ZM5.615 20H18.385C18.5383 20 18.6793 19.936 18.808 19.808C18.936 19.6793 19 19.5383 19 19.385V10.615H5V19.385C5 19.5383 5.064 19.6793 5.192 19.808C5.32067 19.936 5.46167 20 5.615 20Z" fill="#991616"/>
</svg>
