<svg width="48" height="48" viewBox="0 0 48 48" fill="none" xmlns="http://www.w3.org/2000/svg">
<path d="M10 40V36H13.2L17.15 22.85C17.4167 21.9833 17.9087 21.292 18.626 20.776C19.3433 20.26 20.1347 20.0013 21 20H27C27.8667 20 28.6587 20.2587 29.376 20.776C30.0933 21.2933 30.5847 21.9847 30.85 22.85L34.8 36H38V40H10ZM22 16V6H26V16H22ZM33.9 20.95L31.05 18.1L38.15 11.05L40.95 13.85L33.9 20.95ZM36 30V26H46V30H36ZM14.1 20.95L7.05 13.85L9.85 11.05L16.95 18.1L14.1 20.95ZM2 30V26H12V30H2Z" fill="white"/>
</svg>
