<svg width="46" height="46" viewBox="0 0 46 46" fill="none" xmlns="http://www.w3.org/2000/svg">
<path d="M41.3425 24.2659C41.0741 23.4992 40.3458 23.0009 39.4833 23.0009H25.7025C24.8208 23.0009 24.1116 23.4992 23.8241 24.2659L21.0833 32.1434V42.7042C21.0833 43.4325 21.6966 44.0842 22.425 44.0842H23.6133C24.3416 44.0842 24.9166 43.3559 24.9166 42.6275V40.2509H40.25V42.6275C40.25 43.3559 40.8441 44.0842 41.5725 44.0842H42.7416C43.47 44.0842 44.0833 43.4325 44.0833 42.7042V32.1434L41.3425 24.2659ZM25.7025 24.9175H39.4833L41.4575 30.6675H23.7283L25.7025 24.9175ZM24.9166 36.4175C23.8625 36.4175 23 35.555 23 34.5009C23 33.4467 23.8625 32.5842 24.9166 32.5842C25.9708 32.5842 26.8333 33.4467 26.8333 34.5009C26.8333 35.555 25.9708 36.4175 24.9166 36.4175ZM40.25 36.4175C39.1958 36.4175 38.3333 35.555 38.3333 34.5009C38.3333 33.4467 39.1958 32.5842 40.25 32.5842C41.3041 32.5842 42.1666 33.4467 42.1666 34.5009C42.1666 35.555 41.3041 36.4175 40.25 36.4175ZM12.765 27.85L13.4166 32.5842L11.4041 34.6159L8.03079 28.5209L1.91663 25.1284L3.94829 23.0584L8.73996 23.7675L16.1575 16.35L1.91663 8.85586L4.63829 6.15336L22.2525 10.2167L29.7083 2.76086C30.7816 1.63961 32.6983 1.63961 33.7716 2.76086C34.9025 3.89169 34.9025 5.75086 33.7716 6.82419L26.3158 14.28L27.8875 21.0842H25.7025C24.035 21.0842 22.5975 22.0425 22.0416 23.595L21.9841 23.71L20.24 20.375L12.765 27.85Z" fill="white"/>
</svg>
