<svg width="51" height="51" viewBox="0 0 51 51" fill="none" xmlns="http://www.w3.org/2000/svg">
<path d="M18.7425 36.125L27.625 40.97V46.75H12.75C10.3913 46.75 8.5 44.8587 8.5 42.5V8.5C8.5 7.37283 8.94777 6.29183 9.7448 5.4948C10.5418 4.69777 11.6228 4.25 12.75 4.25H14.875V19.125L20.1875 15.9375L25.5 19.125V4.25H38.25C39.3772 4.25 40.4582 4.69777 41.2552 5.4948C42.0522 6.29183 42.5 7.37283 42.5 8.5V26.6475L39.3125 24.905L18.7425 36.125ZM51 36.125L39.3125 29.75L27.625 36.125L39.3125 42.5L51 36.125ZM31.875 40.5662V44.8162L39.3125 48.875L46.75 44.8162V40.5662L39.3125 44.625L31.875 40.5662Z" fill="white"/>
</svg>
