<svg width="22" height="40" viewBox="0 0 22 40" fill="none" xmlns="http://www.w3.org/2000/svg">
<path d="M20.6249 0H1.37488C1.01021 0 0.660469 0.148158 0.402606 0.411881C0.144744 0.675604 -0.00012207 1.03329 -0.00012207 1.40625V38.5938C-0.00012207 38.9667 0.144744 39.3244 0.402606 39.5881C0.660469 39.8518 1.01021 40 1.37488 40H20.6249C20.9896 40 21.3393 39.8518 21.5972 39.5881C21.855 39.3244 21.9999 38.9667 21.9999 38.5938V1.40625C21.9999 1.03329 21.855 0.675604 21.5972 0.411881C21.3393 0.148158 20.9896 0 20.6249 0ZM2.74988 35V5H19.2499V35H2.74988Z" fill="#DC2141" fill-opacity="0.69"/>
</svg>
