<svg width="23" height="23" viewBox="0 0 23 23" fill="none" xmlns="http://www.w3.org/2000/svg">
<path d="M19.23 5.23688L18.7172 5.74969C18.4561 6.01076 18.102 6.15743 17.7328 6.15743C17.3636 6.15743 17.0095 6.01076 16.7484 5.74969C16.4874 5.48862 16.3407 5.13452 16.3407 4.76531C16.3407 4.3961 16.4874 4.04201 16.7484 3.78094L17.2612 3.26813L13.9931 0L9.86812 4.125L9.68062 4.69172L9.11391 4.87922L0 13.9931L3.27 17.2631L3.78281 16.7503C4.04388 16.4892 4.39797 16.3426 4.76719 16.3426C5.1364 16.3426 5.49049 16.4892 5.75156 16.7503C6.01263 17.0114 6.1593 17.3655 6.1593 17.7347C6.1593 18.1039 6.01263 18.458 5.75156 18.7191L5.23875 19.2319L8.50688 22.5L17.6194 13.3875L17.8069 12.8208L18.3736 12.6333L22.4986 8.50828L19.23 5.23688ZM9.45375 5.49141L10.4789 4.46625L12.0258 6.01312L11.0002 7.03828L9.45375 5.49141ZM11.4694 7.50703L12.495 6.48141L14.0194 8.00578L12.9938 9.03141L11.4694 7.50703ZM13.4644 9.50203L14.49 8.47641L16.0144 10.0008L14.9906 11.0287L13.4644 9.50203ZM17.0067 13.0439L15.4598 11.497L16.485 10.4714L18.0319 12.0183L17.0067 13.0439Z" fill="#DC2141" fill-opacity="0.69"/>
</svg>
