<svg width="353" height="424" viewBox="0 0 353 424" fill="none" xmlns="http://www.w3.org/2000/svg">
<g filter="url(#filter0_d_589_4388)">
<path fill-rule="evenodd" clip-rule="evenodd" d="M7 35.3098C7 17.4656 21.4757 3 39.3325 3H313.601C331.458 3 345.933 17.4656 345.933 35.3098V328.327C345.933 328.327 345.933 328.327 345.933 328.327C337.928 328.327 331.439 334.811 331.439 342.81C331.439 350.81 337.928 357.294 345.933 357.294C345.933 357.294 345.933 357.294 345.933 357.294V380.69C345.933 398.534 331.458 413 313.601 413H39.3325C21.4757 413 7 398.534 7 380.69V357.294H7.00039C15.0051 357.294 21.4942 350.81 21.4942 342.81C21.4942 334.811 15.0051 328.327 7.00039 328.327H7V35.3098Z" fill="white"/>
</g>
<line x1="22.7165" y1="342.617" x2="330.217" y2="342.617" stroke="#2E3532" stroke-opacity="0.13" stroke-width="1.36667" stroke-linecap="square" stroke-dasharray="8.2 12.3"/>
<defs>
<filter id="filter0_d_589_4388" x="0.166667" y="0.266666" width="352.6" height="423.667" filterUnits="userSpaceOnUse" color-interpolation-filters="sRGB">
<feFlood flood-opacity="0" result="BackgroundImageFix"/>
<feColorMatrix in="SourceAlpha" type="matrix" values="0 0 0 0 0 0 0 0 0 0 0 0 0 0 0 0 0 0 127 0" result="hardAlpha"/>
<feOffset dy="4.1"/>
<feGaussianBlur stdDeviation="3.41667"/>
<feComposite in2="hardAlpha" operator="out"/>
<feColorMatrix type="matrix" values="0 0 0 0 0.180392 0 0 0 0 0.207843 0 0 0 0 0.196078 0 0 0 0.42 0"/>
<feBlend mode="normal" in2="BackgroundImageFix" result="effect1_dropShadow_589_4388"/>
<feBlend mode="normal" in="SourceGraphic" in2="effect1_dropShadow_589_4388" result="shape"/>
</filter>
</defs>
</svg>
