<svg width="20" height="20" viewBox="0 0 20 20" fill="none" xmlns="http://www.w3.org/2000/svg">
<path d="M9.75 0C4.36547 0 0 4.36547 0 9.75C0 15.1261 4.37437 19.5 9.75 19.5C15.1341 19.5 19.5 15.1341 19.5 9.75C19.5 4.37391 15.1261 0 9.75 0ZM14.8125 11.25H9.1875C9.13777 11.25 9.09008 11.2302 9.05492 11.1951C9.01975 11.1599 9 11.1122 9 11.0625V3.1875C9 3.13777 9.01975 3.09008 9.05492 3.05492C9.09008 3.01975 9.13777 3 9.1875 3H10.3125C10.3622 3 10.4099 3.01975 10.4451 3.05492C10.4802 3.09008 10.5 3.13777 10.5 3.1875V9.75H14.8125C14.8622 9.75 14.9099 9.76975 14.9451 9.80492C14.9802 9.84008 15 9.88777 15 9.9375V11.0625C15 11.1122 14.9802 11.1599 14.9451 11.1951C14.9099 11.2302 14.8622 11.25 14.8125 11.25Z" fill="#DC2141" fill-opacity="0.69"/>
</svg>
