<svg width="15" height="16" viewBox="0 0 15 16" fill="none" xmlns="http://www.w3.org/2000/svg">
<path d="M7.5 0.5C3.35805 0.5 0 3.85805 0 8C0 12.1355 3.3649 15.5 7.5 15.5C11.6416 15.5 15 12.1416 15 8C15 3.86454 11.6355 0.5 7.5 0.5ZM11.3942 9.15385H7.06731C7.02906 9.15385 6.99237 9.13865 6.96532 9.1116C6.93827 9.08455 6.92308 9.04787 6.92308 9.00962V2.95192C6.92308 2.91367 6.93827 2.87698 6.96532 2.84994C6.99237 2.82289 7.02906 2.80769 7.06731 2.80769H7.93269C7.97094 2.80769 8.00763 2.82289 8.03468 2.84994C8.06173 2.87698 8.07692 2.91367 8.07692 2.95192V8H11.3942C11.4325 8 11.4692 8.0152 11.4962 8.04224C11.5233 8.06929 11.5385 8.10598 11.5385 8.14423V9.00962C11.5385 9.04787 11.5233 9.08455 11.4962 9.1116C11.4692 9.13865 11.4325 9.15385 11.3942 9.15385Z" fill="#EFEFEF"/>
</svg>
