<svg width="17" height="25" viewBox="0 0 17 25" fill="none" xmlns="http://www.w3.org/2000/svg">
<path d="M8.5 12.025C7.69488 12.025 6.92273 11.7089 6.35343 11.1463C5.78412 10.5837 5.46429 9.82065 5.46429 9.025C5.46429 8.22935 5.78412 7.46629 6.35343 6.90368C6.92273 6.34107 7.69488 6.025 8.5 6.025C9.30512 6.025 10.0773 6.34107 10.6466 6.90368C11.2159 7.46629 11.5357 8.22935 11.5357 9.025C11.5357 9.41897 11.4572 9.80907 11.3046 10.1731C11.1521 10.537 10.9285 10.8677 10.6466 11.1463C10.3647 11.4249 10.03 11.6459 9.66172 11.7966C9.29341 11.9474 8.89866 12.025 8.5 12.025ZM8.5 0.625C6.24566 0.625 4.08365 1.51 2.48959 3.0853C0.895533 4.66061 0 6.79718 0 9.025C0 15.325 8.5 24.625 8.5 24.625C8.5 24.625 17 15.325 17 9.025C17 6.79718 16.1045 4.66061 14.5104 3.0853C12.9163 1.51 10.7543 0.625 8.5 0.625Z" fill="#FFF2DF"/>
</svg>
