<svg width="21" height="22" viewBox="0 0 21 22" fill="none" xmlns="http://www.w3.org/2000/svg">
<path d="M14.0009 15.5496L15.8092 13.7405C16.0528 13.4999 16.3609 13.3352 16.6962 13.2664C17.0316 13.1975 17.3796 13.2276 17.6982 13.3529L19.9021 14.2332C20.224 14.3639 20.5001 14.587 20.6955 14.8745C20.8909 15.1619 20.9968 15.5008 21 15.8484V19.8864C20.9981 20.1228 20.9484 20.3565 20.8539 20.5732C20.7594 20.7899 20.6221 20.9853 20.4501 21.1475C20.2781 21.3097 20.0751 21.4355 19.8533 21.5171C19.6315 21.5988 19.3955 21.6347 19.1594 21.6227C3.71616 20.6617 0.600064 7.57851 0.0107509 2.57136C-0.0166054 2.32547 0.00838933 2.07658 0.0840907 1.84105C0.159792 1.60552 0.284485 1.3887 0.449965 1.20484C0.615445 1.02098 0.817963 0.874264 1.04419 0.77433C1.27043 0.674396 1.51525 0.623515 1.76255 0.625033H5.6617C6.00965 0.626063 6.34933 0.731207 6.63705 0.926939C6.92478 1.12267 7.14739 1.40004 7.27626 1.72337L8.15619 3.92813C8.28556 4.24558 8.31857 4.59412 8.25109 4.93022C8.18361 5.26632 8.01863 5.57508 7.77677 5.81793L5.96847 7.62696C5.96847 7.62696 7.00986 14.6773 14.0009 15.5496Z" fill="#FFF2DF"/>
</svg>
