<svg width="33" height="33" viewBox="0 0 33 33" fill="none" xmlns="http://www.w3.org/2000/svg">
<path fill-rule="evenodd" clip-rule="evenodd" d="M1.28954 4.35793C0 6.49985 0 9.40323 0 15.21V17.79C0 23.5968 0 26.5002 1.28954 28.6421C2.04677 29.8998 3.10018 30.9532 4.35793 31.7105C6.49985 33 9.40323 33 15.21 33H17.79C23.5968 33 26.5002 33 28.6421 31.7105C29.8998 30.9532 30.9532 29.8998 31.7105 28.6421C33 26.5002 33 23.5968 33 17.79V15.21C33 9.40323 33 6.49985 31.7105 4.35793C30.9532 3.10018 29.8998 2.04677 28.6421 1.28954C26.5002 0 23.5968 0 17.79 0H15.21C9.40323 0 6.49985 0 4.35793 1.28954C3.10018 2.04677 2.04677 3.10018 1.28954 4.35793ZM17.25 10V15.75H23V17.25H17.25V23H15.75V17.25H10V15.75H15.75V10H17.25Z" fill="#EFEFEF"/>
</svg>
