<svg width="69" height="69" viewBox="0 0 69 69" fill="none" xmlns="http://www.w3.org/2000/svg">
<path fill-rule="evenodd" clip-rule="evenodd" d="M3 0C1.34315 0 0 1.34315 0 3V66C0 67.6569 1.34315 69 3 69H66C67.6569 69 69 67.6569 69 66V3C69 1.34315 67.6569 0 66 0H3ZM18.1587 12.8759H49.8556C50.4561 12.8759 51.032 13.1144 51.4566 13.539C51.8811 13.9636 52.1197 14.5395 52.1197 15.14V49.1009C52.1196 49.6307 51.9801 50.1513 51.7152 50.6101C51.4502 51.069 51.0692 51.45 50.6103 51.7149V55.1384H43.8181V52.1196H24.1962V55.1384H17.4041V51.7149C16.9452 51.45 16.5641 51.069 16.2992 50.6101C16.0342 50.1513 15.8947 49.6307 15.8947 49.1009V15.14C15.8947 14.5395 16.1332 13.9636 16.5578 13.539C16.9824 13.1144 17.5583 12.8759 18.1587 12.8759ZM25.8072 46.4481C26.1609 46.0024 26.3814 45.4658 26.4433 44.9001C26.4909 44.4512 26.4374 43.9973 26.2868 43.5717C26.1363 43.1461 25.8925 42.7596 25.5732 42.4404C25.2539 42.1213 24.8673 41.8775 24.4417 41.7271C24.0161 41.5767 23.5622 41.5233 23.1133 41.571C22.5476 41.6331 22.0111 41.8537 21.5654 42.2075C21.1198 42.5614 20.7832 43.0339 20.5945 43.5708C20.4058 44.1076 20.3727 44.6868 20.499 45.2416C20.6253 45.7965 20.9058 46.3043 21.3082 46.7066C21.7106 47.1089 22.2186 47.3893 22.7734 47.5154C23.3283 47.6415 23.9075 47.6082 24.4443 47.4194C24.9811 47.2306 25.4535 46.8939 25.8072 46.4481ZM18.9134 37.0259H32.4978V21.9321H18.9134V37.0259ZM18.9568 18.9134H34.0072H49.0575L49.1009 15.8946H18.9134L18.9568 18.9134ZM49.1009 21.9321H35.5166V37.0259H49.1009V21.9321ZM42.2071 42.6974C41.8534 43.1431 41.6329 43.6798 41.571 44.2454C41.5235 44.6943 41.577 45.1482 41.7275 45.5738C41.8781 45.9994 42.1219 46.3859 42.4412 46.7051C42.7604 47.0243 43.147 47.268 43.5727 47.4184C43.9983 47.5689 44.4522 47.6222 44.9011 47.5745C45.4667 47.5125 46.0033 47.2918 46.4489 46.938C46.8946 46.5842 47.2311 46.1116 47.4198 45.5748C47.6085 45.038 47.6416 44.4587 47.5154 43.9039C47.3891 43.3491 47.1086 42.8412 46.7061 42.4389C46.3037 42.0366 45.7958 41.7562 45.2409 41.6301C44.6861 41.504 44.1068 41.5373 43.5701 41.7261C43.0333 41.915 42.5608 42.2517 42.2071 42.6974Z" fill="#F2D0A4"/>
</svg>
