<svg width="18" height="24" viewBox="0 0 18 24" fill="none" xmlns="http://www.w3.org/2000/svg">
<path d="M16.6875 9H13.5V5.25C13.5 4.05653 13.0259 2.91193 12.182 2.06802C11.3381 1.22411 10.1935 0.75 9 0.75C7.80653 0.75 6.66193 1.22411 5.81802 2.06802C4.97411 2.91193 4.5 4.05653 4.5 5.25V9H1.3125C1.16332 9 1.02024 9.05926 0.914752 9.16475C0.809263 9.27024 0.75 9.41332 0.75 9.5625V22.6875C0.75 22.8367 0.809263 22.9798 0.914752 23.0852C1.02024 23.1907 1.16332 23.25 1.3125 23.25H16.6875C16.8367 23.25 16.9798 23.1907 17.0852 23.0852C17.1907 22.9798 17.25 22.8367 17.25 22.6875V9.5625C17.25 9.41332 17.1907 9.27024 17.0852 9.16475C16.9798 9.05926 16.8367 9 16.6875 9ZM11.7188 9H6.28125V5.21484C6.28125 4.49379 6.56769 3.80226 7.07755 3.2924C7.58742 2.78253 8.27894 2.49609 9 2.49609C9.72106 2.49609 10.4126 2.78253 10.9224 3.2924C11.4323 3.80226 11.7188 4.49379 11.7188 5.21484V9Z" fill="#F2D0A4"/>
</svg>
