<svg width="15" height="15" viewBox="0 0 15 15" fill="none" xmlns="http://www.w3.org/2000/svg">
<path fill-rule="evenodd" clip-rule="evenodd" d="M12.3241 1.07143H14.1964C14.3016 1.07055 14.4058 1.09047 14.5032 1.13006C14.6006 1.16965 14.6892 1.22811 14.7639 1.30209C14.8386 1.37607 14.8979 1.4641 14.9384 1.5611C14.9789 1.65811 14.9999 1.76217 15 1.8673V3.75H0V1.8673C0.000128802 1.76217 0.0210582 1.65811 0.0615822 1.5611C0.102106 1.4641 0.161424 1.37607 0.236118 1.30209C0.310812 1.22811 0.399406 1.16965 0.496796 1.13006C0.594186 1.09047 0.698447 1.07055 0.803571 1.07143H2.67589V0H4.28304V1.07143H10.717V0H12.3241V1.07143ZM0.235361 14.7646C0.0846618 14.6139 0 14.4095 0 14.1964V4.82143H15V14.1964C15 14.4095 14.9153 14.6139 14.7646 14.7646C14.6139 14.9153 14.4095 15 14.1964 15H0.803571C0.590451 15 0.38606 14.9153 0.235361 14.7646ZM10.7535 5.93208C10.7284 5.9572 10.7143 5.99127 10.7143 6.02679V7.36607C10.7143 7.40159 10.7284 7.43566 10.7535 7.46077C10.7786 7.48589 10.8127 7.5 10.8482 7.5H12.1875C12.223 7.5 12.2571 7.48589 12.2822 7.46077C12.3073 7.43566 12.3214 7.40159 12.3214 7.36607V6.02679C12.3214 5.99127 12.3073 5.9572 12.2822 5.93208C12.2571 5.90697 12.223 5.89286 12.1875 5.89286H10.8482C10.8127 5.89286 10.7786 5.90697 10.7535 5.93208ZM10.7535 8.61066C10.7284 8.63577 10.7143 8.66984 10.7143 8.70536V10.0446C10.7143 10.0802 10.7284 10.1142 10.7535 10.1393C10.7786 10.1645 10.8127 10.1786 10.8482 10.1786H12.1875C12.223 10.1786 12.2571 10.1645 12.2822 10.1393C12.3073 10.1142 12.3214 10.0802 12.3214 10.0446V8.70536C12.3214 8.66984 12.3073 8.63577 12.2822 8.61066C12.2571 8.58554 12.223 8.57143 12.1875 8.57143H10.8482C10.8127 8.57143 10.7786 8.58554 10.7535 8.61066ZM8.07494 5.93208C8.04982 5.9572 8.03571 5.99127 8.03571 6.02679V7.36607C8.03571 7.40159 8.04982 7.43566 8.07494 7.46077C8.10006 7.48589 8.13412 7.5 8.16964 7.5H9.50893C9.54445 7.5 9.57851 7.48589 9.60363 7.46077C9.62875 7.43566 9.64286 7.40159 9.64286 7.36607V6.02679C9.64286 5.99127 9.62875 5.9572 9.60363 5.93208C9.57851 5.90697 9.54445 5.89286 9.50893 5.89286H8.16964C8.13412 5.89286 8.10006 5.90697 8.07494 5.93208ZM8.07494 8.61066C8.04982 8.63577 8.03571 8.66984 8.03571 8.70536V10.0446C8.03571 10.0802 8.04982 10.1142 8.07494 10.1393C8.10006 10.1645 8.13412 10.1786 8.16964 10.1786H9.50893C9.54445 10.1786 9.57851 10.1645 9.60363 10.1393C9.62875 10.1142 9.64286 10.0802 9.64286 10.0446V8.70536C9.64286 8.66984 9.62875 8.63577 9.60363 8.61066C9.57851 8.58554 9.54445 8.57143 9.50893 8.57143H8.16964C8.13412 8.57143 8.10006 8.58554 8.07494 8.61066ZM8.07494 11.2892C8.04982 11.3143 8.03571 11.3484 8.03571 11.3839V12.7232C8.03571 12.7587 8.04982 12.7928 8.07494 12.8179C8.10006 12.843 8.13412 12.8571 8.16964 12.8571H9.50893C9.54445 12.8571 9.57851 12.843 9.60363 12.8179C9.62875 12.7928 9.64286 12.7587 9.64286 12.7232V11.3839C9.64286 11.3484 9.62875 11.3143 9.60363 11.2892C9.57851 11.2641 9.54445 11.25 9.50893 11.25H8.16964C8.13412 11.25 8.10006 11.2641 8.07494 11.2892ZM5.39637 8.61066C5.37125 8.63577 5.35714 8.66984 5.35714 8.70536V10.0446C5.35714 10.0802 5.37125 10.1142 5.39637 10.1393C5.42149 10.1645 5.45555 10.1786 5.49107 10.1786H6.83036C6.86588 10.1786 6.89994 10.1645 6.92506 10.1393C6.95018 10.1142 6.96429 10.0802 6.96429 10.0446V8.70536C6.96429 8.66984 6.95018 8.63577 6.92506 8.61066C6.89994 8.58554 6.86588 8.57143 6.83036 8.57143H5.49107C5.45555 8.57143 5.42149 8.58554 5.39637 8.61066ZM5.39637 11.2892C5.37125 11.3143 5.35714 11.3484 5.35714 11.3839V12.7232C5.35714 12.7587 5.37125 12.7928 5.39637 12.8179C5.42149 12.843 5.45555 12.8571 5.49107 12.8571H6.83036C6.86588 12.8571 6.89994 12.843 6.92506 12.8179C6.95018 12.7928 6.96429 12.7587 6.96429 12.7232V11.3839C6.96429 11.3484 6.95018 11.3143 6.92506 11.2892C6.89994 11.2641 6.86588 11.25 6.83036 11.25H5.49107C5.45555 11.25 5.42149 11.2641 5.39637 11.2892ZM2.7178 8.61066C2.69268 8.63577 2.67857 8.66984 2.67857 8.70536V10.0446C2.67857 10.0802 2.69268 10.1142 2.7178 10.1393C2.74291 10.1645 2.77698 10.1786 2.8125 10.1786H4.15179C4.18731 10.1786 4.22137 10.1645 4.24649 10.1393C4.2716 10.1142 4.28571 10.0802 4.28571 10.0446V8.70536C4.28571 8.66984 4.2716 8.63577 4.24649 8.61066C4.22137 8.58554 4.18731 8.57143 4.15179 8.57143H2.8125C2.77698 8.57143 2.74291 8.58554 2.7178 8.61066ZM2.7178 11.2892C2.69268 11.3143 2.67857 11.3484 2.67857 11.3839V12.7232C2.67857 12.7587 2.69268 12.7928 2.7178 12.8179C2.74291 12.843 2.77698 12.8571 2.8125 12.8571H4.15179C4.18731 12.8571 4.22137 12.843 4.24649 12.8179C4.2716 12.7928 4.28571 12.7587 4.28571 12.7232V11.3839C4.28571 11.3484 4.2716 11.3143 4.24649 11.2892C4.22137 11.2641 4.18731 11.25 4.15179 11.25H2.8125C2.77698 11.25 2.74291 11.2641 2.7178 11.2892Z" fill="#EFEFEF"/>
</svg>
