<svg width="43" height="40" viewBox="0 0 43 40" fill="none" xmlns="http://www.w3.org/2000/svg">
<path d="M40.415 0.5H2.91501C2.31827 0.5 1.74598 0.737053 1.32402 1.15901C0.902062 1.58097 0.665009 2.15326 0.665009 2.75V29.75C0.665009 30.3467 0.902062 30.919 1.32402 31.341C1.74598 31.7629 2.31827 32 2.91501 32H9.66501V39.5L20.7031 32H40.415C41.0117 32 41.584 31.7629 42.006 31.341C42.428 30.919 42.665 30.3467 42.665 29.75V2.75C42.665 2.15326 42.428 1.58097 42.006 1.15901C41.584 0.737053 41.0117 0.5 40.415 0.5ZM12.665 19.25C12.0717 19.25 11.4916 19.0741 10.9983 18.7444C10.505 18.4148 10.1204 17.9462 9.89337 17.3981C9.66631 16.8499 9.6069 16.2467 9.72265 15.6647C9.83841 15.0828 10.1241 14.5482 10.5437 14.1287C10.9632 13.7091 11.4978 13.4234 12.0797 13.3076C12.6617 13.1919 13.2649 13.2513 13.8131 13.4784C14.3612 13.7054 14.8298 14.0899 15.1594 14.5833C15.4891 15.0766 15.665 15.6567 15.665 16.25C15.665 17.0456 15.3489 17.8087 14.7863 18.3713C14.2237 18.9339 13.4607 19.25 12.665 19.25ZM21.665 19.25C21.0717 19.25 20.4916 19.0741 19.9983 18.7444C19.505 18.4148 19.1204 17.9462 18.8934 17.3981C18.6663 16.8499 18.6069 16.2467 18.7227 15.6647C18.8384 15.0828 19.1241 14.5482 19.5437 14.1287C19.9632 13.7091 20.4978 13.4234 21.0797 13.3076C21.6617 13.1919 22.2649 13.2513 22.8131 13.4784C23.3612 13.7054 23.8298 14.0899 24.1594 14.5833C24.4891 15.0766 24.665 15.6567 24.665 16.25C24.665 17.0456 24.3489 17.8087 23.7863 18.3713C23.2237 18.9339 22.4607 19.25 21.665 19.25ZM30.665 19.25C30.0717 19.25 29.4916 19.0741 28.9983 18.7444C28.5049 18.4148 28.1204 17.9462 27.8934 17.3981C27.6663 16.8499 27.6069 16.2467 27.7227 15.6647C27.8384 15.0828 28.1241 14.5482 28.5437 14.1287C28.9632 13.7091 29.4978 13.4234 30.0797 13.3076C30.6617 13.1919 31.2649 13.2513 31.8131 13.4784C32.3612 13.7054 32.8298 14.0899 33.1594 14.5833C33.4891 15.0766 33.665 15.6567 33.665 16.25C33.665 17.0456 33.3489 17.8087 32.7863 18.3713C32.2237 18.9339 31.4607 19.25 30.665 19.25Z" fill="#DC2141" fill-opacity="0.69"/>
</svg>
