<svg width="43" height="43" viewBox="0 0 43 43" fill="none" xmlns="http://www.w3.org/2000/svg">
<path d="M21.5 19.0872C24.6401 19.0872 27.1856 16.5737 27.1856 13.4733C27.1856 10.3728 24.6401 7.85938 21.5 7.85938C18.36 7.85938 15.8145 10.3728 15.8145 13.4733C15.8145 16.5737 18.36 19.0872 21.5 19.0872Z" fill="white"/>
<path d="M12.8762 14.0359H13.4495V13.5223C13.453 12.0287 13.8743 10.566 14.6659 9.29947C15.4575 8.03295 16.5877 7.01321 17.9287 6.35561C17.5317 5.44134 16.8945 4.65166 16.0847 4.07045C15.275 3.48923 14.3229 3.13819 13.3297 3.0546C12.3365 2.97101 11.3391 3.15799 10.4436 3.5957C9.54814 4.0334 8.78791 4.70547 8.2437 5.54053C7.69949 6.3756 7.39161 7.34247 7.35277 8.33845C7.31393 9.33444 7.54557 10.3223 8.0231 11.1973C8.50063 12.0722 9.20621 12.8014 10.0649 13.3075C10.9236 13.8136 11.9033 14.0777 12.9001 14.0717L12.8762 14.0359ZM29.5745 13.4745V13.9881H30.1478C31.1313 13.9782 32.0939 13.7034 32.9343 13.1926C33.7748 12.6818 34.4619 11.9538 34.9235 11.0854C35.3851 10.2169 35.6041 9.2401 35.5573 8.25771C35.5105 7.27532 35.1998 6.32371 34.6578 5.50304C34.1158 4.68236 33.3626 4.02298 32.4774 3.59429C31.5922 3.16561 30.6079 2.98348 29.628 3.06708C28.648 3.15067 27.7087 3.4969 26.909 4.06931C26.1092 4.64173 25.4785 5.41916 25.0834 6.31978C26.4248 6.97481 27.5562 7.99196 28.3499 9.25629C29.1435 10.5206 29.5677 11.9817 29.5745 13.4745ZM26.6242 19.6498C28.9991 20.1199 31.2954 20.9241 33.4445 22.0387C33.7473 22.205 34.0215 22.4187 34.2567 22.6717H40.6112V18.5867C40.6123 18.43 40.5707 18.276 40.4907 18.1413C40.4107 18.0066 40.2954 17.8963 40.1573 17.8223C37.0615 16.203 33.6177 15.3625 30.1239 15.3737H29.3356C28.9217 17.0563 27.9696 18.5578 26.6242 19.6498ZM7.79977 24.9889C7.79759 24.3874 7.96005 23.7967 8.26955 23.2809C8.57905 22.765 9.02379 22.3437 9.55561 22.0626C11.7047 20.948 14.001 20.1437 16.3759 19.6737C15.037 18.5909 14.0856 17.103 13.6645 15.4334H12.8762C9.38244 15.4223 5.93865 16.2627 2.84283 17.882C2.70471 17.956 2.58943 18.0663 2.50944 18.201C2.42945 18.3357 2.38778 18.4898 2.38894 18.6464V26.2789H7.79977V24.9889ZM25.6328 31.8809H32.7517V33.5531H25.6328V31.8809Z" fill="white"/>
<path d="M39.1897 25.3941H30.9839V24.1996C30.9839 23.8829 30.8581 23.579 30.6341 23.355C30.4101 23.131 30.1062 23.0052 29.7895 23.0052C29.4727 23.0052 29.1689 23.131 28.9449 23.355C28.7209 23.579 28.595 23.8829 28.595 24.1996V25.3941H26.2778V22.0138C24.7063 21.6838 23.1057 21.5118 21.5 21.5002C17.7301 21.4845 14.014 22.3951 10.6783 24.1519C10.5298 24.2289 10.4054 24.3456 10.319 24.4889C10.2325 24.6323 10.1874 24.7967 10.1886 24.9641V31.6649H18.6811V38.9391C18.6811 39.2559 18.807 39.5597 19.031 39.7837C19.255 40.0077 19.5588 40.1335 19.8756 40.1335H39.1897C39.5065 40.1335 39.8103 40.0077 40.0343 39.7837C40.2583 39.5597 40.3842 39.2559 40.3842 38.9391V26.5885C40.3842 26.2717 40.2583 25.9679 40.0343 25.7439C39.8103 25.5199 39.5065 25.3941 39.1897 25.3941ZM37.9953 37.7685H21.07V27.783H28.595V28.8699C28.595 29.1867 28.7209 29.4905 28.9449 29.7145C29.1689 29.9385 29.4727 30.0644 29.7895 30.0644C30.1062 30.0644 30.4101 29.9385 30.6341 29.7145C30.8581 29.4905 30.9839 29.1867 30.9839 28.8699V27.783H37.9953V37.7685Z" fill="white"/>
</svg>
