<svg width="51" height="45" viewBox="0 0 51 45" fill="none" xmlns="http://www.w3.org/2000/svg">
<path d="M18.4167 7.03125C18.4167 4.70215 20.3203 2.8125 22.6667 2.8125H28.3333C30.6797 2.8125 32.5833 4.70215 32.5833 7.03125V12.6562C32.5833 14.9854 30.6797 16.875 28.3333 16.875H27.625V20.3906H41.0833C43.8193 20.3906 46.0417 22.5967 46.0417 25.3125V28.125H46.75C49.0964 28.125 51 30.0146 51 32.3438V37.9688C51 40.2979 49.0964 42.1875 46.75 42.1875H41.0833C38.737 42.1875 36.8333 40.2979 36.8333 37.9688V32.3438C36.8333 30.0146 38.737 28.125 41.0833 28.125H41.7917V25.3125C41.7917 24.9258 41.4729 24.6094 41.0833 24.6094H27.625V28.125H28.3333C30.6797 28.125 32.5833 30.0146 32.5833 32.3438V37.9688C32.5833 40.2979 30.6797 42.1875 28.3333 42.1875H22.6667C20.3203 42.1875 18.4167 40.2979 18.4167 37.9688V32.3438C18.4167 30.0146 20.3203 28.125 22.6667 28.125H23.375V24.6094H9.91667C9.52708 24.6094 9.20833 24.9258 9.20833 25.3125V28.125H9.91667C12.263 28.125 14.1667 30.0146 14.1667 32.3438V37.9688C14.1667 40.2979 12.263 42.1875 9.91667 42.1875H4.25C1.90365 42.1875 0 40.2979 0 37.9688V32.3438C0 30.0146 1.90365 28.125 4.25 28.125H4.95833V25.3125C4.95833 22.5967 7.18073 20.3906 9.91667 20.3906H23.375V16.875H22.6667C20.3203 16.875 18.4167 14.9854 18.4167 12.6562V7.03125Z" fill="white"/>
</svg>
