<svg width="57" height="57" viewBox="0 0 57 57" fill="none" xmlns="http://www.w3.org/2000/svg">
<path d="M17.8125 7.125H18.7031C19.2019 7.125 19.5938 7.53469 19.5938 8.01562C19.5938 8.51437 19.2019 8.90625 18.7031 8.90625H17.8125V12.6059C18.0922 12.695 18.3629 12.8268 18.6123 13.0031L29.624 20.8656C29.8047 20.9773 29.9605 21.1249 30.0819 21.2992C30.2033 21.4736 30.2876 21.6709 30.3297 21.8792C30.3718 22.0874 30.3707 22.3021 30.3265 22.5099C30.2823 22.7176 30.1959 22.9142 30.0728 23.0873C29.9496 23.2603 29.7922 23.4063 29.6104 23.5162C29.4286 23.626 29.2261 23.6974 29.0156 23.7259C28.8051 23.7544 28.591 23.7395 28.3865 23.6819C28.182 23.6244 27.9914 23.5255 27.8267 23.3914L26.7188 22.6041V28.5H50.4022C51.2697 28.5 52.0642 29.0148 52.3901 29.8146L53.3484 32.1569C53.4229 32.3448 53.4501 32.5481 53.4275 32.749C53.4049 32.9499 53.3332 33.1421 53.2188 33.3087C53.1045 33.4754 52.9509 33.6113 52.7715 33.7046C52.5922 33.7979 52.3927 33.8457 52.1906 33.8438H51.6562V53.4375H7.125V22.6147L6.03487 23.3932C5.01956 24.1413 3.58031 23.3932 3.5625 22.1285C3.5625 21.6315 3.81187 21.1506 4.22156 20.8656L15.2297 13.0031C15.475 12.8306 15.7454 12.6966 16.0312 12.6059V8.90625H15.1406C14.6419 8.90625 14.25 8.51437 14.25 8.01562C14.25 7.51688 14.6419 7.125 15.1406 7.125H16.0312V6.23438C16.0312 5.73562 16.4231 5.34375 16.9219 5.34375C17.4206 5.34375 17.8125 5.73562 17.8125 6.23438V7.125ZM16.9219 32.0625C19.3782 32.0625 21.375 30.0835 21.375 27.6094C21.375 25.153 19.3782 23.1562 16.9219 23.1562C15.7411 23.1572 14.609 23.6267 13.7741 24.4616C12.9392 25.2965 12.4697 26.4286 12.4688 27.6094C12.4688 30.0657 14.4655 32.0625 16.9219 32.0625ZM32.0803 48.0938H37.4241V40.0781C37.4241 38.5997 36.2306 37.4062 34.7522 37.4062C33.2738 37.4062 32.0803 38.5997 32.0803 40.0781V48.0938ZM23.1562 51.6562V45.4219C23.1562 41.9841 20.3597 39.1875 16.9219 39.1875C13.4841 39.1875 10.6875 41.9841 10.6875 45.4219V51.6562H23.1562ZM40.9866 40.0781V48.0938H46.3303V40.0781C46.3303 38.5997 45.1369 37.4062 43.6584 37.4062C42.18 37.4062 40.9866 38.5997 40.9866 40.0781Z" fill="white"/>
<path d="M46.3303 17.4384V17.5097C46.3303 18.5072 46.0275 19.4513 45.5109 20.2172C44.2284 21.9984 42.6075 23.5481 40.755 24.7594C40.5591 24.8841 40.3275 24.9375 40.0959 24.9375C39.8644 24.9375 39.6328 24.8841 39.4369 24.7594C37.5844 23.5481 35.9634 21.9984 34.6809 20.2172C34.1644 19.4513 33.8616 18.5072 33.8616 17.5097V17.4384C33.8794 15.6572 35.3044 14.25 37.0678 14.25C37.3172 14.25 37.5844 14.2856 37.8159 14.3569C38.7066 14.535 39.4547 15.105 39.8822 15.8709C39.9356 15.96 40.0069 15.9956 40.0959 15.9956C40.185 15.9956 40.2563 15.96 40.3097 15.8709C40.7372 15.105 41.4853 14.535 42.3759 14.3569C42.6075 14.2856 42.8747 14.25 43.1241 14.25C44.8875 14.25 46.3125 15.6572 46.3303 17.4384Z" fill="white"/>
</svg>
