<svg width="47" height="47" viewBox="0 0 47 47" fill="none" xmlns="http://www.w3.org/2000/svg">
<path d="M15.2658 6.53052L16.0094 15.2567L14.6508 15.4954L12.3834 7.05192L13.2096 15.7524L11.7684 16.0278L9.48262 7.56966L10.318 16.2849L8.95662 16.5235L6.59102 8.08372L7.62465 18.4421L11.9611 17.6618L13.5859 26.6212C13.8889 26.5202 14.2102 26.4651 14.5406 26.4651C14.7885 26.4651 15.0271 26.4927 15.2566 26.5569L13.5951 17.3681L17.9279 16.5878L15.2658 6.53052ZM31.4129 7.0152C31.11 9.7581 30.1002 12.6589 28.916 12.1081C27.7961 11.594 28.099 10.3456 28.9527 8.96405C27.5666 9.95087 25.6205 10.5843 26.8965 13.2464C25.5287 12.4661 25.9143 10.9331 25.7123 9.64794C23.7387 11.1259 24.3904 13.6686 25.1891 15.7249L26.2814 16.0462L26.3273 13.7329L27.2637 15.4128C28.3836 14.9446 28.402 14.6325 29.0812 13.9991C28.6498 14.8436 28.4203 15.7616 27.4289 16.4317L28.1541 16.6704C30.2563 16.1839 33.4141 12.4845 31.4129 7.0152ZM40.2713 10.6852C38.4537 10.7036 35.8834 12.6497 37.1869 14.8528C38.4262 9.35419 43.5393 13.6503 42.9609 15.5688C42.1807 18.1575 40.2988 17.9464 39.5369 19.2958L40.8588 19.7548C46.8164 17.5333 44.8795 10.979 40.4457 10.6944C40.3906 10.6944 40.3355 10.6852 40.2713 10.6852ZM24.9596 17.7628L24.3629 20.7003L26.4834 21.2052L27.6033 18.488L24.9596 17.7628ZM39.0229 20.8655L37.1502 27.3097C37.5816 27.0893 38.059 26.9608 38.5639 26.9608C38.7658 26.9608 38.9678 26.9792 39.1605 27.0159L40.4824 21.3704L39.0229 20.8655ZM24.6383 21.9854C23.601 21.9854 22.7656 22.9309 22.7656 24.0968C22.7656 25.2259 23.5551 26.153 24.5557 26.1989C24.7576 27.071 24.9688 27.9431 25.2074 28.8151C25.7215 29.0813 26.1713 29.4761 26.5293 29.9442C27.1811 30.8163 27.5574 31.9546 27.5574 33.203C27.5574 33.7538 27.484 34.2862 27.3463 34.7911C27.3646 34.8278 27.383 34.8737 27.4014 34.9104L30.1094 35.3878L29.3934 42.7866L29.99 45.3477H35.5529L34.6625 35.8284L34.6074 35.1767C35.4795 34.8737 36.3607 34.6259 37.0492 34.4331L34.6992 33.9282C34.0934 34.479 33.3314 34.8278 32.4869 34.8278C31.3762 34.8278 30.4031 34.222 29.7514 33.3591C29.173 32.588 28.815 31.5966 28.7416 30.5134C27.8236 28.6774 26.9332 26.8231 26.41 24.7761C26.7863 23.5001 25.648 22.0222 24.6383 21.9854ZM7.74949 22.9218C6.71586 22.9218 6.20088 23.4542 6.2018 24.262C6.2018 24.721 6.15039 25.2809 6.61305 25.5563C6.3808 26.2815 6.10725 26.9792 5.81074 27.6677C6.23117 27.8054 6.61764 28.0349 6.9582 28.3286C6.97106 28.3102 6.98299 28.2919 6.99584 28.2735C7.3924 27.7503 7.90922 27.3188 8.50131 27.0618C8.62248 26.5661 8.73814 26.0704 8.84738 25.5747C9.33574 25.2993 9.62031 24.8587 9.62031 24.3905C9.62031 23.5827 8.78312 22.9218 7.74949 22.9218ZM32.4869 27.0251C31.9729 27.0251 31.4863 27.2913 31.0732 27.8421C30.6602 28.3837 30.3756 29.1915 30.3756 30.1003C30.3756 31.0091 30.6602 31.8169 31.0732 32.3585C31.4863 32.9093 31.9729 33.1755 32.4869 33.1755C33.001 33.1755 33.4875 32.9093 33.9006 32.3585C34.3137 31.8169 34.5891 31.0091 34.5891 30.1003C34.5891 29.1915 34.3137 28.3837 33.9006 27.8421C33.4875 27.2913 33.001 27.0251 32.4869 27.0251ZM14.5406 28.1175C14.0266 28.1175 13.54 28.3837 13.127 28.9345C12.7139 29.4761 12.4293 30.2839 12.4293 31.1927C12.4293 32.1015 12.7139 32.9093 13.127 33.4509C13.54 34.0017 14.0266 34.2679 14.5406 34.2679C15.0547 34.2679 15.5412 34.0017 15.9543 33.4509C16.3674 32.9093 16.6428 32.1015 16.6428 31.1927C16.6428 30.2839 16.3674 29.4761 15.9543 28.9345C15.5412 28.3837 15.0547 28.1175 14.5406 28.1175ZM9.73047 28.4571C9.21641 28.4571 8.72621 28.7233 8.3168 29.2741C8.21307 29.4118 8.1176 29.5679 8.03223 29.7331C8.39207 30.4675 8.59127 31.3212 8.59127 32.23C8.59127 32.7991 8.51416 33.3407 8.36912 33.8456L9.76719 34.1485L11.0799 33.8731C11.1533 33.7813 11.2359 33.6712 11.291 33.5794C10.9605 32.8725 10.777 32.0556 10.777 31.1927C10.777 30.495 10.8963 29.8341 11.1074 29.2282C10.7035 28.7141 10.2354 28.4571 9.73047 28.4571ZM38.5639 28.6132C38.0498 28.6132 37.5633 28.8794 37.1502 29.4302C36.7371 29.9718 36.4617 30.7796 36.4617 31.6884C36.4617 32.028 36.4984 32.3493 36.5719 32.6431L38.215 33.0011C38.215 32.8817 38.2059 32.7532 38.2059 32.6247C38.2059 31.3763 38.5822 30.238 39.234 29.3659C39.335 29.2374 39.4451 29.1089 39.5553 28.9895C39.2523 28.7325 38.9127 28.6132 38.5639 28.6132ZM4.83219 29.1548C4.31904 29.1548 3.82793 29.421 3.41852 29.9718C3.0091 30.5134 2.72545 31.3212 2.72545 32.23C2.72545 33.1388 3.0091 33.9466 3.41852 34.4882C3.82793 35.039 4.31904 35.3052 4.83219 35.3052C5.34533 35.3052 5.83645 35.039 6.24586 34.4882C6.65527 33.9466 6.93893 33.1388 6.93893 32.23C6.93893 31.3212 6.65527 30.5134 6.24586 29.9718C5.83645 29.421 5.34533 29.1548 4.83219 29.1548ZM18.5063 29.3567C18.3502 29.3567 18.185 29.3843 18.0381 29.4393C18.2033 29.9809 18.2951 30.5776 18.2951 31.1927C18.2951 32.1382 18.084 33.0102 17.7076 33.763L20.1311 34.2954C20.0668 33.9466 20.0301 33.5794 20.0301 33.203C20.0301 32.4595 20.1678 31.7526 20.4064 31.1284C20.2871 30.7612 20.1219 30.4308 19.9199 30.1737C19.5068 29.6229 19.0203 29.3567 18.5063 29.3567ZM41.9695 29.5495C41.4555 29.5495 40.9689 29.8157 40.5559 30.3665C40.1428 30.9081 39.8582 31.7159 39.8582 32.6247C39.8674 33.5335 40.1428 34.3413 40.5559 34.8829C40.9689 35.4337 41.4555 35.6999 41.9695 35.6999C42.4836 35.6999 42.9701 35.4337 43.3832 34.8829C43.7963 34.3413 44.0809 33.5335 44.0809 32.6247C44.0809 31.7159 43.7963 30.9081 43.3832 30.3665C42.9701 29.8157 42.4836 29.5495 41.9695 29.5495ZM23.7938 30.1278C23.2797 30.1278 22.7932 30.394 22.3801 30.9448C21.967 31.4864 21.6824 32.2942 21.6824 33.203C21.6824 34.1118 21.967 34.9196 22.3801 35.4612C22.7932 36.012 23.2797 36.2782 23.7938 36.2782C24.3078 36.2782 24.7943 36.012 25.2074 35.4612C25.6205 34.9196 25.9051 34.1118 25.9051 33.203C25.9051 32.2942 25.6205 31.4864 25.2074 30.9448C24.7943 30.394 24.3078 30.1278 23.7938 30.1278ZM16.5418 35.195C15.9727 35.6448 15.2934 35.9202 14.5406 35.9202C13.8154 35.9202 13.1453 35.6632 12.5854 35.2409L9.66621 35.8651L11.8785 45.3477H18.0932L18.1299 45.0448C17.7994 41.8044 17.4506 38.564 17.1293 35.3235L16.5418 35.195ZM7.56682 35.4888C6.91414 36.3517 5.93926 36.9575 4.83219 36.9575C3.76734 36.9575 2.82551 36.3975 2.17559 35.5897L1.65234 35.6999V41.8411L2.40049 45.3477H8.85197L9.33574 41.7034L7.8725 35.4245C7.70635 35.3786 7.65494 35.3694 7.56682 35.4888ZM39.0688 35.6448C38.1508 35.8468 37.2604 36.0763 36.3699 36.3425L37.2145 45.3477H44.9713L45.3477 42.5388V36.0304C45.1273 35.9569 44.8887 35.9018 44.7051 35.8835C44.0533 36.7464 43.0803 37.3522 41.9695 37.3522C40.666 37.1686 39.693 36.5811 39.0688 35.6448ZM20.9848 36.3608L18.9285 36.6729L19.8189 45.3477H27.4748L28.3102 36.7464L26.5477 36.4343C26.5385 36.4434 26.5385 36.4526 26.5293 36.4618C25.8775 37.3247 24.9045 37.9306 23.7938 37.9306C22.582 37.7561 21.5814 37.1962 20.9848 36.3608Z" fill="white"/>
</svg>
