<svg width="44" height="49" viewBox="0 0 44 49" fill="none" xmlns="http://www.w3.org/2000/svg">
<path d="M37.125 16.8438H27.5V6.125C27.5 4.90666 27.0654 3.73822 26.2918 2.87673C25.5182 2.01523 24.469 1.53125 23.375 1.53125H6.875C5.78098 1.53125 4.73177 2.01523 3.95818 2.87673C3.1846 3.73822 2.75 4.90666 2.75 6.125V45.9375C2.75 46.3436 2.89487 46.7331 3.15273 47.0203C3.41059 47.3074 3.76033 47.4688 4.125 47.4688H13.0625C13.2448 47.4688 13.4197 47.3881 13.5486 47.2445C13.6776 47.1009 13.75 46.9062 13.75 46.7031V39.8556C13.75 39.0316 14.3189 38.3243 15.0588 38.2832C15.2447 38.2732 15.4305 38.3054 15.605 38.3777C15.7794 38.4501 15.9388 38.5611 16.0735 38.7041C16.2083 38.8471 16.3156 39.019 16.3889 39.2096C16.4622 39.4001 16.5 39.6052 16.5 39.8125V46.7031C16.5 46.9062 16.5724 47.1009 16.7014 47.2445C16.8303 47.3881 17.0052 47.4688 17.1875 47.4688H39.875C40.2397 47.4688 40.5894 47.3074 40.8473 47.0203C41.1051 46.7331 41.25 46.3436 41.25 45.9375V21.4375C41.25 20.2192 40.8154 19.0507 40.0418 18.1892C39.2682 17.3277 38.219 16.8438 37.125 16.8438ZM8.42875 41.3313C8.14398 41.3728 7.85469 41.3139 7.60149 41.163C7.34829 41.012 7.14389 40.7766 7.01698 40.4897C6.89007 40.2028 6.84701 39.8788 6.89385 39.5632C6.9407 39.2477 7.07509 38.9564 7.27817 38.7302C7.48125 38.5041 7.74282 38.3544 8.02617 38.3022C8.30952 38.2501 8.60043 38.298 8.85806 38.4394C9.11569 38.5807 9.32712 38.8083 9.46267 39.0903C9.59821 39.3723 9.65107 39.6944 9.61383 40.0116C9.57452 40.3462 9.43703 40.6571 9.22271 40.8957C9.0084 41.1344 8.72928 41.2875 8.42875 41.3313ZM8.42875 33.6751C8.14398 33.7165 7.85469 33.6577 7.60149 33.5067C7.34829 33.3558 7.14389 33.1203 7.01698 32.8334C6.89007 32.5465 6.84701 32.2225 6.89385 31.907C6.9407 31.5914 7.07509 31.3001 7.27817 31.074C7.48125 30.8478 7.74282 30.6982 8.02617 30.646C8.30952 30.5938 8.60043 30.6418 8.85806 30.7831C9.11569 30.9244 9.32712 31.1521 9.46267 31.434C9.59821 31.716 9.65107 32.0382 9.61383 32.3553C9.57452 32.69 9.43703 33.0008 9.22271 33.2395C9.0084 33.4782 8.72928 33.6313 8.42875 33.6751ZM8.42875 26.0188C8.14398 26.0603 7.85469 26.0014 7.60149 25.8505C7.34829 25.6995 7.14389 25.4641 7.01698 25.1772C6.89007 24.8902 6.84701 24.5663 6.89385 24.2507C6.9407 23.9352 7.07509 23.6439 7.27817 23.4177C7.48125 23.1916 7.74282 23.0419 8.02617 22.9897C8.30952 22.9376 8.60043 22.9855 8.85806 23.1269C9.11569 23.2682 9.32712 23.4958 9.46267 23.7778C9.59821 24.0598 9.65107 24.3819 9.61383 24.6991C9.57452 25.0337 9.43703 25.3446 9.22271 25.5832C9.0084 25.8219 8.72928 25.975 8.42875 26.0188ZM8.42875 18.3626C8.14398 18.404 7.85469 18.3452 7.60149 18.1942C7.34829 18.0433 7.14389 17.8078 7.01698 17.5209C6.89007 17.234 6.84701 16.91 6.89385 16.5945C6.9407 16.2789 7.07509 15.9876 7.27817 15.7615C7.48125 15.5353 7.74282 15.3857 8.02617 15.3335C8.30952 15.2813 8.60043 15.3293 8.85806 15.4706C9.11569 15.6119 9.32712 15.8396 9.46267 16.1215C9.59821 16.4035 9.65107 16.7257 9.61383 17.0428C9.57452 17.3775 9.43703 17.6883 9.22271 17.927C9.0084 18.1657 8.72928 18.3188 8.42875 18.3626ZM8.42875 10.7063C8.14398 10.7478 7.85469 10.6889 7.60149 10.538C7.34829 10.387 7.14389 10.1516 7.01698 9.86466C6.89007 9.57775 6.84701 9.25378 6.89385 8.93823C6.9407 8.62268 7.07509 8.33139 7.27817 8.10523C7.48125 7.87908 7.74282 7.72941 8.02617 7.67724C8.30952 7.62508 8.60043 7.67303 8.85806 7.81436C9.11569 7.9557 9.32712 8.18333 9.46267 8.4653C9.59821 8.74727 9.65107 9.06943 9.61383 9.38656C9.57452 9.72124 9.43703 10.0321 9.22271 10.2707C9.0084 10.5094 8.72928 10.6625 8.42875 10.7063ZM15.3038 33.6751C15.019 33.7165 14.7297 33.6577 14.4765 33.5067C14.2233 33.3558 14.0189 33.1203 13.892 32.8334C13.7651 32.5465 13.722 32.2225 13.7689 31.907C13.8157 31.5914 13.9501 31.3001 14.1532 31.074C14.3562 30.8478 14.6178 30.6982 14.9012 30.646C15.1845 30.5938 15.4754 30.6418 15.7331 30.7831C15.9907 30.9244 16.2021 31.1521 16.3377 31.434C16.4732 31.716 16.5261 32.0382 16.4888 32.3553C16.4495 32.69 16.312 33.0008 16.0977 33.2395C15.8834 33.4782 15.6043 33.6313 15.3038 33.6751ZM15.3038 26.0188C15.019 26.0603 14.7297 26.0014 14.4765 25.8505C14.2233 25.6995 14.0189 25.4641 13.892 25.1772C13.7651 24.8902 13.722 24.5663 13.7689 24.2507C13.8157 23.9352 13.9501 23.6439 14.1532 23.4177C14.3562 23.1916 14.6178 23.0419 14.9012 22.9897C15.1845 22.9376 15.4754 22.9855 15.7331 23.1269C15.9907 23.2682 16.2021 23.4958 16.3377 23.7778C16.4732 24.0598 16.5261 24.3819 16.4888 24.6991C16.4495 25.0337 16.312 25.3446 16.0977 25.5832C15.8834 25.8219 15.6043 25.975 15.3038 26.0188ZM15.3038 18.3626C15.019 18.404 14.7297 18.3452 14.4765 18.1942C14.2233 18.0433 14.0189 17.8078 13.892 17.5209C13.7651 17.234 13.722 16.91 13.7689 16.5945C13.8157 16.2789 13.9501 15.9876 14.1532 15.7615C14.3562 15.5353 14.6178 15.3857 14.9012 15.3335C15.1845 15.2813 15.4754 15.3293 15.7331 15.4706C15.9907 15.6119 16.2021 15.8396 16.3377 16.1215C16.4732 16.4035 16.5261 16.7257 16.4888 17.0428C16.4495 17.3775 16.312 17.6883 16.0977 17.927C15.8834 18.1657 15.6043 18.3188 15.3038 18.3626ZM15.3038 10.7063C15.019 10.7478 14.7297 10.6889 14.4765 10.538C14.2233 10.387 14.0189 10.1516 13.892 9.86466C13.7651 9.57775 13.722 9.25378 13.7689 8.93823C13.8157 8.62268 13.9501 8.33139 14.1532 8.10523C14.3562 7.87908 14.6178 7.72941 14.9012 7.67724C15.1845 7.62508 15.4754 7.67303 15.7331 7.81436C15.9907 7.9557 16.2021 8.18333 16.3377 8.4653C16.4732 8.74727 16.5261 9.06943 16.4888 9.38656C16.4495 9.72124 16.312 10.0321 16.0977 10.2707C15.8834 10.5094 15.6043 10.6625 15.3038 10.7063ZM22.1787 41.3313C21.894 41.3728 21.6047 41.3139 21.3515 41.163C21.0983 41.012 20.8939 40.7766 20.767 40.4897C20.6401 40.2028 20.597 39.8788 20.6439 39.5632C20.6907 39.2477 20.8251 38.9564 21.0282 38.7302C21.2312 38.5041 21.4928 38.3544 21.7762 38.3022C22.0595 38.2501 22.3504 38.298 22.6081 38.4394C22.8657 38.5807 23.0771 38.8083 23.2127 39.0903C23.3482 39.3723 23.4011 39.6944 23.3638 40.0116C23.3245 40.3462 23.187 40.6571 22.9727 40.8957C22.7584 41.1344 22.4793 41.2875 22.1787 41.3313ZM22.1787 33.6751C21.894 33.7165 21.6047 33.6577 21.3515 33.5067C21.0983 33.3558 20.8939 33.1203 20.767 32.8334C20.6401 32.5465 20.597 32.2225 20.6439 31.907C20.6907 31.5914 20.8251 31.3001 21.0282 31.074C21.2312 30.8478 21.4928 30.6982 21.7762 30.646C22.0595 30.5938 22.3504 30.6418 22.6081 30.7831C22.8657 30.9244 23.0771 31.1521 23.2127 31.434C23.3482 31.716 23.4011 32.0382 23.3638 32.3553C23.3245 32.69 23.187 33.0008 22.9727 33.2395C22.7584 33.4782 22.4793 33.6313 22.1787 33.6751ZM22.1787 26.0188C21.894 26.0603 21.6047 26.0014 21.3515 25.8505C21.0983 25.6995 20.8939 25.4641 20.767 25.1772C20.6401 24.8902 20.597 24.5663 20.6439 24.2507C20.6907 23.9352 20.8251 23.6439 21.0282 23.4177C21.2312 23.1916 21.4928 23.0419 21.7762 22.9897C22.0595 22.9376 22.3504 22.9855 22.6081 23.1269C22.8657 23.2682 23.0771 23.4958 23.2127 23.7778C23.3482 24.0598 23.4011 24.3819 23.3638 24.6991C23.3245 25.0337 23.187 25.3446 22.9727 25.5832C22.7584 25.8219 22.4793 25.975 22.1787 26.0188ZM22.1787 18.3626C21.894 18.404 21.6047 18.3452 21.3515 18.1942C21.0983 18.0433 20.8939 17.8078 20.767 17.5209C20.6401 17.234 20.597 16.91 20.6439 16.5945C20.6907 16.2789 20.8251 15.9876 21.0282 15.7615C21.2312 15.5353 21.4928 15.3857 21.7762 15.3335C22.0595 15.2813 22.3504 15.3293 22.6081 15.4706C22.8657 15.6119 23.0771 15.8396 23.2127 16.1215C23.3482 16.4035 23.4011 16.7257 23.3638 17.0428C23.3245 17.3775 23.187 17.6883 22.9727 17.927C22.7584 18.1657 22.4793 18.3188 22.1787 18.3626ZM22.1787 10.7063C21.894 10.7478 21.6047 10.6889 21.3515 10.538C21.0983 10.387 20.8939 10.1516 20.767 9.86466C20.6401 9.57775 20.597 9.25378 20.6439 8.93823C20.6907 8.62268 20.8251 8.33139 21.0282 8.10523C21.2312 7.87908 21.4928 7.72941 21.7762 7.67724C22.0595 7.62508 22.3504 7.67303 22.6081 7.81436C22.8657 7.9557 23.0771 8.18333 23.2127 8.4653C23.3482 8.74727 23.4011 9.06943 23.3638 9.38656C23.3245 9.72124 23.187 10.0321 22.9727 10.2707C22.7584 10.5094 22.4793 10.6625 22.1787 10.7063ZM38.1562 44.4062H27.5V19.9062H37.125C37.4897 19.9062 37.8394 20.0676 38.0973 20.3547C38.3551 20.6419 38.5 21.0314 38.5 21.4375V44.0234C38.5 44.125 38.4638 44.2223 38.3993 44.2941C38.3349 44.3659 38.2474 44.4062 38.1562 44.4062Z" fill="white"/>
<path d="M34.375 38.2813C34.1031 38.2813 33.8372 38.3711 33.6111 38.5393C33.385 38.7076 33.2087 38.9467 33.1047 39.2265C33.0006 39.5063 32.9734 39.8142 33.0264 40.1112C33.0795 40.4083 33.2104 40.6811 33.4027 40.8953C33.595 41.1094 33.84 41.2552 34.1068 41.3143C34.3735 41.3734 34.6499 41.3431 34.9012 41.2272C35.1524 41.1113 35.3672 40.915 35.5183 40.6632C35.6694 40.4114 35.75 40.1154 35.75 39.8125C35.75 39.4064 35.6051 39.0169 35.3473 38.7297C35.0894 38.4426 34.7397 38.2813 34.375 38.2813ZM34.375 30.625C34.1031 30.625 33.8372 30.7148 33.6111 30.8831C33.385 31.0513 33.2087 31.2905 33.1047 31.5703C33.0006 31.8501 32.9734 32.158 33.0264 32.455C33.0795 32.752 33.2104 33.0249 33.4027 33.239C33.595 33.4532 33.84 33.599 34.1068 33.6581C34.3735 33.7172 34.6499 33.6868 34.9012 33.5709C35.1524 33.455 35.3672 33.2588 35.5183 33.007C35.6694 32.7552 35.75 32.4591 35.75 32.1563C35.75 31.7501 35.6051 31.3607 35.3473 31.0735C35.0894 30.7863 34.7397 30.625 34.375 30.625ZM34.375 22.9688C34.1031 22.9688 33.8372 23.0586 33.6111 23.2268C33.385 23.3951 33.2087 23.6342 33.1047 23.914C33.0006 24.1938 32.9734 24.5017 33.0264 24.7987C33.0795 25.0958 33.2104 25.3686 33.4027 25.5828C33.595 25.7969 33.84 25.9427 34.1068 26.0018C34.3735 26.0609 34.6499 26.0306 34.9012 25.9147C35.1524 25.7988 35.3672 25.6025 35.5183 25.3507C35.6694 25.0989 35.75 24.8029 35.75 24.5C35.75 24.0939 35.6051 23.7044 35.3473 23.4172C35.0894 23.1301 34.7397 22.9688 34.375 22.9688ZM28.875 38.2813C28.6031 38.2813 28.3372 38.3711 28.1111 38.5393C27.885 38.7076 27.7087 38.9467 27.6047 39.2265C27.5006 39.5063 27.4734 39.8142 27.5264 40.1112C27.5795 40.4083 27.7104 40.6811 27.9027 40.8953C28.095 41.1094 28.34 41.2552 28.6068 41.3143C28.8735 41.3734 29.1499 41.3431 29.4012 41.2272C29.6524 41.1113 29.8672 40.915 30.0183 40.6632C30.1694 40.4114 30.25 40.1154 30.25 39.8125C30.25 39.4064 30.1051 39.0169 29.8473 38.7297C29.5894 38.4426 29.2397 38.2813 28.875 38.2813ZM28.875 30.625C28.6031 30.625 28.3372 30.7148 28.1111 30.8831C27.885 31.0513 27.7087 31.2905 27.6047 31.5703C27.5006 31.8501 27.4734 32.158 27.5264 32.455C27.5795 32.752 27.7104 33.0249 27.9027 33.239C28.095 33.4532 28.34 33.599 28.6068 33.6581C28.8735 33.7172 29.1499 33.6868 29.4012 33.5709C29.6524 33.455 29.8672 33.2588 30.0183 33.007C30.1694 32.7552 30.25 32.4591 30.25 32.1563C30.25 31.7501 30.1051 31.3607 29.8473 31.0735C29.5894 30.7863 29.2397 30.625 28.875 30.625ZM28.875 22.9688C28.6031 22.9688 28.3372 23.0586 28.1111 23.2268C27.885 23.3951 27.7087 23.6342 27.6047 23.914C27.5006 24.1938 27.4734 24.5017 27.5264 24.7987C27.5795 25.0958 27.7104 25.3686 27.9027 25.5828C28.095 25.7969 28.34 25.9427 28.6068 26.0018C28.8735 26.0609 29.1499 26.0306 29.4012 25.9147C29.6524 25.7988 29.8672 25.6025 30.0183 25.3507C30.1694 25.0989 30.25 24.8029 30.25 24.5C30.25 24.0939 30.1051 23.7044 29.8473 23.4172C29.5894 23.1301 29.2397 22.9688 28.875 22.9688Z" fill="white"/>
</svg>
