<svg width="24" height="25" viewBox="0 0 24 25" fill="none" xmlns="http://www.w3.org/2000/svg">
<path d="M12 20.625C14.1217 20.625 16.1566 19.7821 17.6569 18.2819C19.1571 16.7816 20 14.7467 20 12.625C20 10.5033 19.1571 8.46844 17.6569 6.96815C16.1566 5.46785 14.1217 4.625 12 4.625C9.87827 4.625 7.84344 5.46785 6.34315 6.96815C4.84285 8.46844 4 10.5033 4 12.625C4 14.7467 4.84285 16.7816 6.34315 18.2819C7.84344 19.7821 9.87827 20.625 12 20.625ZM12 2.625C13.3132 2.625 14.6136 2.88366 15.8268 3.3862C17.0401 3.88875 18.1425 4.62535 19.0711 5.55393C19.9997 6.48252 20.7362 7.58491 21.2388 8.79817C21.7413 10.0114 22 11.3118 22 12.625C22 15.2772 20.9464 17.8207 19.0711 19.6961C17.1957 21.5714 14.6522 22.625 12 22.625C6.47 22.625 2 18.125 2 12.625C2 9.97284 3.05357 7.4293 4.92893 5.55393C6.8043 3.67857 9.34784 2.625 12 2.625ZM12.5 7.625V12.875L17 15.545L16.25 16.775L11 13.625V7.625H12.5Z" fill="#FFF2DF"/>
</svg>
