<svg width="38" height="36" viewBox="0 0 38 36" fill="none" xmlns="http://www.w3.org/2000/svg">
<path d="M35.4062 0.9375H2.59375C2.07161 0.9375 1.57085 1.14492 1.20163 1.51413C0.832421 1.88335 0.625 2.38411 0.625 2.90625V26.5312C0.625 27.0534 0.832421 27.5542 1.20163 27.9234C1.57085 28.2926 2.07161 28.5 2.59375 28.5H8.5V35.0625L18.1584 28.5H35.4062C35.9284 28.5 36.4292 28.2926 36.7984 27.9234C37.1676 27.5542 37.375 27.0534 37.375 26.5312V2.90625C37.375 2.38411 37.1676 1.88335 36.7984 1.51413C36.4292 1.14492 35.9284 0.9375 35.4062 0.9375ZM11.125 17.3438C10.6058 17.3438 10.0983 17.1898 9.66663 16.9014C9.23495 16.6129 8.8985 16.2029 8.69982 15.7233C8.50114 15.2436 8.44915 14.7158 8.55044 14.2066C8.65172 13.6974 8.90173 13.2297 9.26885 12.8626C9.63596 12.4955 10.1037 12.2455 10.6129 12.1442C11.1221 12.0429 11.6499 12.0949 12.1295 12.2936C12.6092 12.4922 13.0192 12.8287 13.3076 13.2604C13.596 13.6921 13.75 14.1996 13.75 14.7188C13.75 15.4149 13.4734 16.0826 12.9812 16.5749C12.4889 17.0672 11.8212 17.3438 11.125 17.3438ZM19 17.3438C18.4808 17.3438 17.9733 17.1898 17.5416 16.9014C17.1099 16.6129 16.7735 16.2029 16.5748 15.7233C16.3761 15.2436 16.3242 14.7158 16.4254 14.2066C16.5267 13.6974 16.7767 13.2297 17.1438 12.8626C17.511 12.4955 17.9787 12.2455 18.4879 12.1442C18.9971 12.0429 19.5249 12.0949 20.0045 12.2936C20.4842 12.4922 20.8942 12.8287 21.1826 13.2604C21.471 13.6921 21.625 14.1996 21.625 14.7188C21.625 15.4149 21.3484 16.0826 20.8562 16.5749C20.3639 17.0672 19.6962 17.3438 19 17.3438V17.3438ZM26.875 17.3438C26.3558 17.3438 25.8483 17.1898 25.4166 16.9014C24.9849 16.6129 24.6485 16.2029 24.4498 15.7233C24.2511 15.2436 24.1992 14.7158 24.3004 14.2066C24.4017 13.6974 24.6517 13.2297 25.0188 12.8626C25.386 12.4955 25.8537 12.2455 26.3629 12.1442C26.8721 12.0429 27.3999 12.0949 27.8795 12.2936C28.3592 12.4922 28.7692 12.8287 29.0576 13.2604C29.346 13.6921 29.5 14.1996 29.5 14.7188C29.5 15.4149 29.2234 16.0826 28.7312 16.5749C28.2389 17.0672 27.5712 17.3438 26.875 17.3438Z" fill="#EFEFEF" fill-opacity="0.42"/>
</svg>
