<svg width="44" height="56" viewBox="0 0 44 56" fill="none" xmlns="http://www.w3.org/2000/svg">
<path d="M29.6486 13.9338C34.4779 18.0878 34.9945 25.3347 30.8023 30.1201C26.6102 34.9055 19.2969 35.4174 14.4676 31.2633C7.72148 25.4605 7.79882 10.333 7.79882 10.333H0V34.0845L14.4676 55.0262H43.3241L28.8918 43.1414C32.5123 41.9693 35.8689 39.84 38.5475 36.7823C46.4265 27.7882 45.4557 14.1688 36.3792 6.36143C30.3105 1.18355 22.1973 0 14.4676 0V9.96964C19.4791 9.94462 25.7711 10.5984 29.6486 13.9338Z" fill="#DC2141"/>
<path d="M18.1648 19.2372C20.0603 17.0735 23.3667 16.8421 25.5502 18.7203C27.7337 20.5986 27.9673 23.8749 26.0718 26.0386C24.1764 28.2023 20.87 28.4337 18.6865 26.5555C16.5029 24.6773 16.2694 21.4009 18.1648 19.2372Z" fill="#DC2141"/>
</svg>
