<svg width="197" height="56" viewBox="0 0 197 56" fill="none" xmlns="http://www.w3.org/2000/svg">
<path d="M29.6486 13.9338C34.4779 18.0878 34.9945 25.3347 30.8023 30.1201C26.6102 34.9055 19.2969 35.4174 14.4676 31.2633C7.72148 25.4605 7.79882 10.333 7.79882 10.333H0V34.0845L14.4676 55.0262H43.3241L28.8918 43.1414C32.5123 41.9693 35.8689 39.84 38.5475 36.7823C46.4265 27.7882 45.4557 14.1688 36.3792 6.36143C30.3105 1.18355 22.1973 0 14.4676 0V9.96964C19.4791 9.94462 25.7711 10.5984 29.6486 13.9338Z" fill="#DC2141"/>
<path d="M18.1648 19.2372C20.0603 17.0735 23.3667 16.8421 25.5502 18.7203C27.7337 20.5986 27.9673 23.8749 26.0718 26.0386C24.1764 28.2023 20.87 28.4337 18.6865 26.5555C16.5029 24.6773 16.2694 21.4009 18.1648 19.2372Z" fill="#DC2141"/>
<path d="M55.2702 29.5341V11.4863H63.9259C65.7827 11.4863 67.2572 11.9952 68.3494 13.013C69.4598 14.0308 70.015 15.403 70.015 17.1296C70.015 18.2928 69.7875 19.2197 69.3324 19.9104C68.8955 20.6011 68.3403 21.1281 67.6668 21.4916C66.9932 21.837 66.3197 22.0914 65.6462 22.255L70.3973 29.5341H67.9671L63.5983 22.6094H57.3181V29.5341H55.2702ZM57.3181 20.6738H63.571C64.2263 20.6738 64.8907 20.5738 65.5643 20.3739C66.2378 20.1739 66.8021 19.8195 67.2572 19.3106C67.7305 18.7835 67.9671 18.0565 67.9671 17.1296C67.9671 15.9846 67.5757 15.0849 66.793 14.4306C66.0102 13.7581 64.9726 13.4219 63.6802 13.4219H57.3181V20.6738Z" fill="#DC2141"/>
<path d="M75.9934 29.5341V11.4863H89.2911V13.4492H78.0413V19.5015H88.0896V21.4916H78.0413V27.5712H89.2911V29.5341H75.9934Z" fill="#DC2141"/>
<path d="M102.443 29.7522C100.605 29.7522 99.0212 29.3433 97.6924 28.5254C96.3817 27.6893 95.3714 26.5716 94.6615 25.1721C93.9515 23.7726 93.5966 22.2186 93.5966 20.5102C93.5966 18.8017 93.9606 17.2478 94.6888 15.8483C95.4169 14.4488 96.4454 13.3401 97.7743 12.5222C99.1213 11.6862 100.696 11.2682 102.498 11.2682C104.446 11.2682 106.13 11.7498 107.55 12.7131C108.988 13.6582 110.043 14.885 110.717 16.3935H108.478C107.932 15.4303 107.167 14.6669 106.184 14.1035C105.22 13.54 104.045 13.2583 102.662 13.2583C101.206 13.2583 99.9496 13.5855 98.8938 14.2398C97.838 14.8759 97.0279 15.7392 96.4636 16.8297C95.9175 17.9202 95.6445 19.147 95.6445 20.5102C95.6445 21.8551 95.9175 23.0819 96.4636 24.1906C97.0097 25.2811 97.8016 26.1535 98.8392 26.8078C99.895 27.444 101.151 27.762 102.607 27.762C103.7 27.762 104.728 27.5257 105.693 27.0532C106.676 26.5806 107.468 25.8991 108.068 25.0085C108.687 24.1179 108.997 23.0456 108.997 21.7915H102.389V19.9377H110.881V29.5341H108.997V26.3444C108.614 26.926 108.123 27.4803 107.522 28.0074C106.922 28.5163 106.193 28.9343 105.338 29.2615C104.5 29.5886 103.536 29.7522 102.443 29.7522Z" fill="#DC2141"/>
<path d="M116.933 29.5341V11.4863H130.231V13.4492H118.981V19.5015H129.029V21.4916H118.981V27.5712H130.231V29.5341H116.933Z" fill="#DC2141"/>
<path d="M136.003 29.5341V11.4863H138.379L149.547 26.6715V11.4863H151.595V29.5341H149.219L138.051 14.2943V29.5341H136.003Z" fill="#DC2141"/>
<path d="M166.077 29.7522C164.275 29.7522 162.719 29.3433 161.408 28.5254C160.097 27.6893 159.087 26.5716 158.377 25.1721C157.685 23.7726 157.34 22.2186 157.34 20.5102C157.34 18.8017 157.685 17.2478 158.377 15.8483C159.087 14.4488 160.097 13.3401 161.408 12.5222C162.719 11.6862 164.275 11.2682 166.077 11.2682C167.443 11.2682 168.671 11.5135 169.763 12.0043C170.856 12.4768 171.784 13.1311 172.549 13.9672C173.313 14.8032 173.887 15.7756 174.269 16.8843H172.112C171.657 15.7756 170.938 14.8941 169.955 14.2398C168.972 13.5855 167.734 13.2583 166.241 13.2583C164.785 13.2583 163.538 13.5855 162.5 14.2398C161.481 14.8759 160.707 15.7392 160.179 16.8297C159.651 17.9202 159.387 19.147 159.387 20.5102C159.387 21.8551 159.651 23.0819 160.179 24.1906C160.707 25.2811 161.481 26.1535 162.5 26.8078C163.538 27.444 164.785 27.762 166.241 27.762C167.734 27.762 168.972 27.4349 169.955 26.7806C170.938 26.1263 171.657 25.2448 172.112 24.1361H174.269C173.887 25.2266 173.313 26.199 172.549 27.0532C171.784 27.8892 170.856 28.5526 169.763 29.0434C168.671 29.5159 167.443 29.7522 166.077 29.7522Z" fill="#DC2141"/>
<path d="M184.964 29.5341V22.3913L177.373 11.4863H179.858L185.974 20.2648L192.091 11.4863H194.575L187.012 22.3913V29.5341H184.964Z" fill="#DC2141"/>
<path d="M55.2702 53.5137V35.4659H63.3798C64.7997 35.4659 65.9192 35.7113 66.7384 36.202C67.5757 36.6927 68.1765 37.3107 68.5405 38.0559C68.9046 38.7829 69.0866 39.5099 69.0866 40.2369C69.0866 41.4001 68.8409 42.2997 68.3494 42.9359C67.8579 43.5538 67.2936 44.0082 66.6565 44.299C67.1662 44.4626 67.6759 44.7261 68.1856 45.0896C68.7135 45.4349 69.1504 45.9075 69.4962 46.5073C69.8421 47.107 70.015 47.8613 70.015 48.77C70.015 50.115 69.4962 51.2419 68.4586 52.1506C67.4392 53.0594 65.901 53.5137 63.844 53.5137H55.2702ZM57.3181 43.5356H63.3798C64.017 43.5356 64.6086 43.4266 65.1547 43.2085C65.719 42.9904 66.1741 42.6541 66.5199 42.1998C66.8658 41.7272 67.0387 41.1274 67.0387 40.4004C67.0387 39.8915 66.9204 39.4099 66.6838 38.9555C66.4653 38.5011 66.1013 38.1286 65.5916 37.8378C65.1001 37.547 64.4356 37.4016 63.5983 37.4016H57.3181V43.5356ZM57.3181 51.5781H64.0625C65.3003 51.5781 66.256 51.3236 66.9295 50.8147C67.6213 50.2877 67.9671 49.5516 67.9671 48.6065C67.9671 47.7522 67.6395 47.0071 66.9841 46.3709C66.3288 45.7166 65.2821 45.3895 63.844 45.3895H57.3181V51.5781Z" fill="#DC2141"/>
<path d="M83.2611 53.7318C81.7684 53.7318 80.4395 53.4047 79.2745 52.7504C78.1277 52.0779 77.2266 51.1419 76.5713 49.9423C75.916 48.7428 75.5883 47.3433 75.5883 45.7439V35.4659H77.6362V45.7984C77.6362 47.1979 77.9001 48.3338 78.428 49.2062C78.9741 50.0787 79.675 50.7239 80.5306 51.1419C81.4043 51.5417 82.3145 51.7417 83.2611 51.7417C84.2259 51.7417 85.136 51.5417 85.9916 51.1419C86.8472 50.7239 87.548 50.0787 88.0941 49.2062C88.6402 48.3338 88.9133 47.1979 88.9133 45.7984V35.4659H90.9612V45.7439C90.9612 47.3251 90.6335 48.7155 89.9782 49.9151C89.3229 51.1146 88.4127 52.0506 87.2477 52.7231C86.1008 53.3956 84.772 53.7318 83.2611 53.7318Z" fill="#DC2141"/>
<path d="M104.095 53.7318C102.311 53.7318 100.863 53.4956 99.7531 53.023C98.6426 52.5323 97.8053 51.8598 97.241 51.0056C96.6949 50.1514 96.3763 49.1881 96.2853 48.1157H98.4151C98.4697 48.9881 98.761 49.697 99.2889 50.2422C99.8168 50.7693 100.509 51.1601 101.364 51.4145C102.238 51.669 103.194 51.7962 104.231 51.7962C105.76 51.7962 106.971 51.5327 107.863 51.0056C108.755 50.4603 109.201 49.6606 109.201 48.6065C109.201 47.9703 108.973 47.4614 108.518 47.0798C108.081 46.6799 107.49 46.3528 106.743 46.0983C106.015 45.8439 105.214 45.6167 104.34 45.4167C103.467 45.1986 102.584 44.9715 101.692 44.7352C100.818 44.4989 100.008 44.199 99.2616 43.8355C98.5334 43.472 97.9418 43.0086 97.4867 42.4451C97.0498 41.8635 96.8314 41.1274 96.8314 40.2369C96.8314 38.7647 97.3957 37.5651 98.5243 36.6382C99.6711 35.7113 101.373 35.2478 103.63 35.2478C105.232 35.2478 106.552 35.4932 107.59 35.9839C108.627 36.4564 109.401 37.0835 109.911 37.865C110.439 38.6465 110.73 39.4917 110.784 40.4004H108.682C108.573 39.4917 108.118 38.7283 107.317 38.1104C106.516 37.4743 105.287 37.1562 103.63 37.1562C102.611 37.1562 101.783 37.2562 101.146 37.4561C100.509 37.656 100.017 37.9195 99.6711 38.2467C99.3435 38.5557 99.1159 38.8828 98.9885 39.2281C98.8793 39.5735 98.8247 39.9006 98.8247 40.2096C98.8247 40.8094 99.0431 41.3001 99.48 41.6818C99.9351 42.0453 100.527 42.3543 101.255 42.6087C102.001 42.845 102.82 43.0631 103.712 43.263C104.604 43.4629 105.487 43.6901 106.361 43.9446C107.253 44.1808 108.063 44.4898 108.791 44.8715C109.537 45.235 110.129 45.7076 110.566 46.2892C111.021 46.8708 111.249 47.6159 111.249 48.5247C111.249 50.1968 110.611 51.4872 109.337 52.396C108.063 53.2865 106.315 53.7318 104.095 53.7318Z" fill="#DC2141"/>
<path d="M116.88 53.5137V35.4659H130.178V37.4288H118.928V43.4811H128.976V45.4713H118.928V51.5508H130.178V53.5137H116.88Z" fill="#DC2141"/>
<path d="M142.421 53.7318C140.637 53.7318 139.19 53.4956 138.08 53.023C136.969 52.5323 136.132 51.8598 135.568 51.0056C135.022 50.1514 134.703 49.1881 134.612 48.1157H136.742C136.796 48.9881 137.088 49.697 137.616 50.2422C138.143 50.7693 138.835 51.1601 139.691 51.4145C140.564 51.669 141.52 51.7962 142.558 51.7962C144.087 51.7962 145.297 51.5327 146.189 51.0056C147.081 50.4603 147.527 49.6606 147.527 48.6065C147.527 47.9703 147.3 47.4614 146.845 47.0798C146.408 46.6799 145.816 46.3528 145.07 46.0983C144.342 45.8439 143.541 45.6167 142.667 45.4167C141.793 45.1986 140.91 44.9715 140.018 44.7352C139.145 44.4989 138.335 44.199 137.588 43.8355C136.86 43.472 136.268 43.0086 135.813 42.4451C135.376 41.8635 135.158 41.1274 135.158 40.2369C135.158 38.7647 135.722 37.5651 136.851 36.6382C137.998 35.7113 139.7 35.2478 141.957 35.2478C143.559 35.2478 144.879 35.4932 145.916 35.9839C146.954 36.4564 147.728 37.0835 148.237 37.865C148.765 38.6465 149.056 39.4917 149.111 40.4004H147.009C146.899 39.4917 146.444 38.7283 145.643 38.1104C144.842 37.4743 143.614 37.1562 141.957 37.1562C140.938 37.1562 140.109 37.2562 139.472 37.4561C138.835 37.656 138.344 37.9195 137.998 38.2467C137.67 38.5557 137.443 38.8828 137.315 39.2281C137.206 39.5735 137.151 39.9006 137.151 40.2096C137.151 40.8094 137.37 41.3001 137.807 41.6818C138.262 42.0453 138.853 42.3543 139.581 42.6087C140.328 42.845 141.147 43.0631 142.039 43.263C142.931 43.4629 143.814 43.6901 144.688 43.9446C145.58 44.1808 146.39 44.4898 147.118 44.8715C147.864 45.235 148.456 45.7076 148.893 46.2892C149.348 46.8708 149.575 47.6159 149.575 48.5247C149.575 50.1968 148.938 51.4872 147.664 52.396C146.39 53.2865 144.642 53.7318 142.421 53.7318Z" fill="#DC2141"/>
<path fill-rule="evenodd" clip-rule="evenodd" d="M54 30.8023V10.2181H63.9259C66.0206 10.2181 67.8316 10.7978 69.2122 12.0822C70.6216 13.3762 71.2852 15.1072 71.2852 17.1296C71.2852 18.4392 71.0317 19.6332 70.4001 20.5973C69.8559 21.4543 69.1458 22.135 68.2707 22.6072L68.2589 22.6136L68.247 22.6197C68.0325 22.7297 67.817 22.832 67.6005 22.9264L72.7411 30.8023H67.2661L62.8972 23.8776H58.5882V30.8023H54ZM57.3181 22.6094H63.5983L67.9671 29.5341H70.3973L65.6462 22.255C66.0628 22.1538 66.4794 22.0179 66.896 21.8471C67.1529 21.7419 67.4099 21.6234 67.6668 21.4916C68.3403 21.1281 68.8955 20.6011 69.3324 19.9104C69.7875 19.2197 70.015 18.2928 70.015 17.1296C70.015 15.403 69.4598 14.0308 68.3494 13.013C67.2572 11.9952 65.7827 11.4863 63.9259 11.4863H55.2702V29.5341H57.3181V22.6094ZM66.793 14.4306C66.0102 13.7581 64.9726 13.4219 63.6802 13.4219H57.3181V20.6738H63.571C64.2263 20.6738 64.8907 20.5738 65.5643 20.3739C66.2378 20.1739 66.8021 19.8195 67.2572 19.3106C67.7305 18.7835 67.9671 18.0565 67.9671 17.1296C67.9671 15.9846 67.5757 15.0849 66.793 14.4306ZM58.5882 19.4056H63.571C64.0952 19.4056 64.6378 19.3258 65.2023 19.1583C65.6567 19.0234 66.0162 18.7943 66.3097 18.466L66.3115 18.4641C66.518 18.234 66.697 17.843 66.697 17.1296C66.697 16.3079 66.4344 15.7848 65.9776 15.403L65.9711 15.3975L65.9645 15.3919C65.4658 14.9634 64.7476 14.6901 63.6802 14.6901H58.5882V19.4056ZM74.7232 30.8023V10.2181H90.5612V14.7173H79.3114V18.2333H89.3598V22.7598H79.3114V26.303H90.5612V30.8023H74.7232ZM78.0413 27.5712V21.4916H88.0896V19.5015H78.0413V13.4492H89.2911V11.4863H75.9934V29.5341H89.2911V27.5712H78.0413ZM97.0171 29.5996L97.0085 29.5941C95.5044 28.6346 94.3399 27.3448 93.5284 25.7451C92.7205 24.1525 92.3264 22.3997 92.3264 20.5102C92.3264 18.6156 92.7318 16.8585 93.5616 15.2637C94.394 13.6639 95.5799 12.3836 97.1057 11.444C98.68 10.4675 100.493 10 102.498 10C104.662 10 106.599 10.5377 108.256 11.6589C109.884 12.7309 111.102 14.1408 111.877 15.8772L112.674 17.6617H107.737L107.373 17.0182C106.941 16.2574 106.342 15.6562 105.552 15.2033L105.543 15.1982C104.814 14.7725 103.873 14.5265 102.662 14.5265C101.401 14.5265 100.386 14.8077 99.5636 15.3173L99.5569 15.3215L99.55 15.3256C98.697 15.8395 98.0519 16.5263 97.5959 17.4044C97.1504 18.2971 96.9146 19.3238 96.9146 20.5102C96.9146 21.6769 97.1498 22.7085 97.6014 23.627C98.0414 24.504 98.6702 25.1987 99.5063 25.7286C100.329 26.2212 101.346 26.4939 102.607 26.4939C103.509 26.4939 104.346 26.3005 105.133 25.9146L105.142 25.9105C105.925 25.5342 106.542 25.0012 107.015 24.3001L107.02 24.2928L107.025 24.2855C107.272 23.93 107.46 23.5249 107.578 23.0597H101.119V18.6695H112.151V30.8023H107.727V29.4453C107.147 29.8432 106.501 30.1744 105.796 30.4442C104.784 30.8387 103.659 31.0204 102.443 31.0204C100.412 31.0204 98.5883 30.5666 97.0259 29.6049L97.0171 29.5996ZM107.727 27.8231C108.235 27.3515 108.659 26.8586 108.997 26.3444V29.5341H110.881V19.9377H102.389V21.7915H108.997C108.997 22.2372 108.958 22.6599 108.88 23.0597C108.738 23.7848 108.467 24.4344 108.068 25.0085C107.468 25.8991 106.676 26.5806 105.693 27.0532C104.728 27.5257 103.7 27.762 102.607 27.762C101.151 27.762 99.895 27.444 98.8392 26.8078C97.8016 26.1535 97.0097 25.2811 96.4636 24.1906C95.9175 23.0819 95.6445 21.8551 95.6445 20.5102C95.6445 19.147 95.9175 17.9202 96.4636 16.8297C97.0279 15.7392 97.838 14.8759 98.8938 14.2398C99.9496 13.5855 101.206 13.2583 102.662 13.2583C104.045 13.2583 105.22 13.54 106.184 14.1035C107.167 14.6669 107.932 15.4303 108.478 16.3935H110.717C110.517 15.946 110.284 15.5233 110.017 15.1254C109.383 14.1819 108.561 13.3778 107.55 12.7131C106.13 11.7498 104.446 11.2682 102.498 11.2682C100.696 11.2682 99.1213 11.6862 97.7743 12.5222C96.4454 13.3401 95.4169 14.4488 94.6888 15.8483C93.9606 17.2478 93.5966 18.8017 93.5966 20.5102C93.5966 22.2186 93.9515 23.7726 94.6615 25.1721C95.3714 26.5716 96.3817 27.6893 97.6924 28.5254C99.0212 29.3433 100.605 29.7522 102.443 29.7522C103.536 29.7522 104.5 29.5886 105.338 29.2615C106.193 28.9343 106.922 28.5163 107.522 28.0074C107.592 27.9463 107.66 27.8849 107.727 27.8231ZM115.663 30.8023V10.2181H131.501V14.7173H120.251V18.2333H130.3V22.7598H120.251V26.303H131.501V30.8023H115.663ZM118.981 27.5712V21.4916H129.029V19.5015H118.981V13.4492H130.231V11.4863H116.933V29.5341H130.231V27.5712H118.981ZM134.733 30.8023V10.2181H139.022L148.276 22.8018V10.2181H152.865V30.8023H148.574L139.321 18.1752V30.8023H134.733ZM138.051 14.2943L149.219 29.5341H151.595V11.4863H149.547V26.6715L138.379 11.4863H136.003V29.5341H138.051V14.2943ZM160.724 29.5941C159.22 28.6346 158.056 27.3448 157.244 25.7451L157.238 25.7333C156.452 24.1433 156.069 22.3945 156.069 20.5102C156.069 18.6258 156.452 16.8771 157.238 15.2871L157.244 15.2752C158.056 13.6751 159.222 12.3924 160.729 11.4502C162.274 10.4666 164.074 10 166.077 10C167.594 10 169.001 10.2726 170.276 10.8441C171.521 11.384 172.597 12.1393 173.487 13.1121C174.372 14.0807 175.033 15.2049 175.47 16.4715L176.049 18.1524H171.26L170.936 17.3652C170.576 16.4866 170.019 15.8066 169.25 15.295C168.525 14.8121 167.549 14.5265 166.241 14.5265C164.979 14.5265 163.978 14.8079 163.178 15.312L163.173 15.3152C162.359 15.8234 161.748 16.5043 161.323 17.3816C160.888 18.2795 160.658 19.314 160.658 20.5102C160.658 21.6833 160.886 22.7204 161.325 23.6422C161.749 24.5169 162.36 25.2076 163.176 25.7339C163.976 26.2211 164.979 26.4939 166.241 26.4939C167.549 26.4939 168.525 26.2083 169.25 25.7254C170.019 25.2137 170.576 24.5338 170.936 23.6552L171.26 22.8679H176.059L175.468 24.555C175.031 25.8013 174.372 26.9188 173.496 27.8982L173.487 27.9083C172.599 28.8793 171.526 29.6422 170.285 30.1998L170.277 30.2035L170.268 30.207C168.995 30.7579 167.591 31.0204 166.077 31.0204C164.077 31.0204 162.279 30.5643 160.735 29.6008L160.724 29.5941ZM160.179 24.1906C159.651 23.0819 159.387 21.8551 159.387 20.5102C159.387 19.147 159.651 17.9202 160.179 16.8297C160.707 15.7392 161.481 14.8759 162.5 14.2398C163.538 13.5855 164.785 13.2583 166.241 13.2583C167.734 13.2583 168.972 13.5855 169.955 14.2398C170.938 14.8941 171.657 15.7756 172.112 16.8843H174.269C174.116 16.4396 173.931 16.0169 173.717 15.6161C173.396 15.0175 173.007 14.4679 172.549 13.9672C171.784 13.1311 170.856 12.4768 169.763 12.0043C168.671 11.5135 167.443 11.2682 166.077 11.2682C164.275 11.2682 162.719 11.6862 161.408 12.5222C160.097 13.3401 159.087 14.4488 158.377 15.8483C157.685 17.2478 157.34 18.8017 157.34 20.5102C157.34 22.2186 157.685 23.7726 158.377 25.1721C159.087 26.5716 160.097 27.6893 161.408 28.5254C162.719 29.3433 164.275 29.7522 166.077 29.7522C167.443 29.7522 168.671 29.5159 169.763 29.0434C170.856 28.5526 171.784 27.8892 172.549 27.0532C173.003 26.5453 173.39 25.9957 173.71 25.4043C173.927 25.001 174.114 24.5782 174.269 24.1361H172.112C171.657 25.2448 170.938 26.1263 169.955 26.7806C168.972 27.4349 167.734 27.762 166.241 27.762C164.785 27.762 163.538 27.444 162.5 26.8078C161.481 26.1535 160.707 25.2811 160.179 24.1906ZM183.694 30.8023V22.7887L174.944 10.2181H180.522L185.974 18.0441L191.427 10.2181H197L188.282 22.7875V30.8023H183.694ZM187.012 22.3913L194.575 11.4863H192.091L185.974 20.2648L179.858 11.4863H177.373L184.964 22.3913V29.5341H187.012V22.3913ZM54 54.7819V34.1977H63.3798C64.923 34.1977 66.2972 34.4606 67.3865 35.1113C68.3977 35.7051 69.1887 36.4932 69.6793 37.4942C70.1193 38.3746 70.3568 39.2927 70.3568 40.2369C70.3568 41.559 70.0799 42.7724 69.3551 43.7105L69.3496 43.7175L69.3441 43.7245C69.2362 43.8601 69.1246 43.9903 69.0091 44.115C69.6605 44.5698 70.188 45.1653 70.597 45.8745C71.0833 46.7179 71.2852 47.7068 71.2852 48.77C71.2852 50.4885 70.6025 51.958 69.3004 53.1003C67.9552 54.297 66.0578 54.7819 63.844 54.7819H54ZM68.4586 52.1506C69.4962 51.2419 70.015 50.115 70.015 48.77C70.015 47.8613 69.8421 47.107 69.4962 46.5073C69.1504 45.9075 68.7135 45.4349 68.1856 45.0896C68.131 45.0507 68.0763 45.0129 68.0217 44.9762C67.5666 44.6708 67.1116 44.445 66.6565 44.299C67.1063 44.0937 67.5198 43.8069 67.897 43.4385C68.0541 43.2851 68.2049 43.1175 68.3494 42.9359C68.8409 42.2997 69.0866 41.4001 69.0866 40.2369C69.0866 39.5099 68.9046 38.7829 68.5405 38.0559C68.1765 37.3107 67.5757 36.6927 66.7384 36.202C65.9192 35.7113 64.7997 35.4659 63.3798 35.4659H55.2702V53.5137H63.844C65.901 53.5137 67.4392 53.0594 68.4586 52.1506ZM65.1547 43.2085C65.719 42.9904 66.1741 42.6541 66.5199 42.1998C66.8658 41.7272 67.0387 41.1274 67.0387 40.4004C67.0387 39.8915 66.9204 39.4099 66.6838 38.9555C66.4653 38.5011 66.1013 38.1286 65.5916 37.8378C65.1001 37.547 64.4356 37.4016 63.5983 37.4016H57.3181V43.5356H63.3798C64.017 43.5356 64.6086 43.4266 65.1547 43.2085ZM58.5882 42.2675H63.3798C63.8689 42.2675 64.299 42.1844 64.683 42.031L64.6895 42.0284L64.6962 42.0258C65.05 41.8891 65.3067 41.694 65.501 41.4424C65.6498 41.2347 65.7686 40.9169 65.7686 40.4004C65.7686 40.0966 65.7 39.8155 65.5569 39.5406L65.5475 39.5226L65.5387 39.5043C65.4491 39.318 65.2848 39.1234 64.9614 38.9388L64.9527 38.9339L64.944 38.9287C64.7193 38.7958 64.3071 38.6697 63.5983 38.6697H58.5882V42.2675ZM66.0923 47.274L66.086 47.2677C65.772 46.9542 65.1264 46.6577 63.844 46.6577H58.5882V50.3099H64.0625C65.1453 50.3099 65.7895 50.0848 66.161 49.805C66.506 49.5413 66.697 49.195 66.697 48.6065C66.697 48.12 66.5268 47.6957 66.0987 47.2802L66.0923 47.274ZM66.9295 50.8147C66.256 51.3236 65.3003 51.5781 64.0625 51.5781H57.3181V45.3895H63.844C65.2821 45.3895 66.3288 45.7166 66.9841 46.3709C67.6395 47.0071 67.9671 47.7522 67.9671 48.6065C67.9671 49.5516 67.6213 50.2877 66.9295 50.8147ZM78.6415 53.8499L78.6313 53.8439C77.28 53.0515 76.2184 51.9448 75.4562 50.5496C74.683 49.1343 74.3181 47.5192 74.3181 45.7439V34.1977H78.9063V45.7984C78.9063 47.0442 79.1416 47.9288 79.5104 48.5425C79.9372 49.2213 80.4585 49.6916 81.0748 49.9959C81.7804 50.3164 82.5054 50.4735 83.2611 50.4735C84.0399 50.4735 84.7625 50.3143 85.4429 49.9981C86.0636 49.6926 86.5883 49.2191 87.017 48.5341C87.3992 47.9235 87.6431 47.043 87.6431 45.7984V34.1977H92.2313V45.7439C92.2313 47.5037 91.8653 49.1091 91.0933 50.5223C90.3291 51.9212 89.256 53.0277 87.8876 53.8186C86.5212 54.619 84.9654 55 83.2611 55C81.5762 55 80.0284 54.6288 78.6518 53.8557L78.6415 53.8499ZM80.5306 51.1419C79.675 50.7239 78.9741 50.0787 78.428 49.2062C77.9001 48.3338 77.6362 47.1979 77.6362 45.7984V35.4659H75.5883V45.7439C75.5883 47.3433 75.916 48.7428 76.5713 49.9423C77.2266 51.1419 78.1277 52.0779 79.2745 52.7504C80.4395 53.4047 81.7684 53.7318 83.2611 53.7318C84.772 53.7318 86.1008 53.3956 87.2477 52.7231C88.4127 52.0506 89.3229 51.1146 89.9782 49.9151C90.6335 48.7155 90.9612 47.3251 90.9612 45.7439V35.4659H88.9133V45.7984C88.9133 47.1979 88.6402 48.3338 88.0941 49.2062C87.548 50.0787 86.8472 50.7239 85.9916 51.1419C85.136 51.5417 84.2259 51.7417 83.2611 51.7417C82.3145 51.7417 81.4043 51.5417 80.5306 51.1419ZM99.247 54.1862L99.239 54.1827C97.9477 53.612 96.9021 52.7959 96.1807 51.7038L96.1754 51.6959L96.1703 51.6879C95.5067 50.6498 95.127 49.4868 95.0197 48.2228L94.9029 46.8476H99.6084L99.6828 48.0366C99.7213 48.6515 99.9125 49.0582 100.195 49.3533C100.546 49.7008 101.037 49.9937 101.723 50.1981C102.466 50.4139 103.299 50.528 104.231 50.528C105.627 50.528 106.583 50.2854 107.207 49.9191C107.712 49.6079 107.931 49.2211 107.931 48.6065C107.931 48.3142 107.846 48.1724 107.701 48.0508L107.68 48.0331L107.66 48.0146C107.387 47.7653 106.965 47.514 106.333 47.2984L106.324 47.2953C105.646 47.0587 104.892 46.8439 104.057 46.6529L104.044 46.6501L104.032 46.6471C103.152 46.4274 102.264 46.1987 101.366 45.9609L101.36 45.9593C100.415 45.7039 99.5293 45.3769 98.7047 44.9753L98.6935 44.9699C97.8226 44.5351 97.0807 43.9627 96.498 43.2412L96.484 43.2239L96.4706 43.206C95.8346 42.3593 95.5612 41.3388 95.5612 40.2369C95.5612 38.3894 96.2925 36.8291 97.7174 35.6588L97.7251 35.6525C99.1905 34.4681 101.229 33.9796 103.63 33.9796C105.347 33.9796 106.866 34.2403 108.125 34.8338C109.326 35.3823 110.303 36.1472 110.969 37.1643C111.616 38.1247 111.984 39.1844 112.052 40.3245L112.133 41.6686H107.555L107.421 40.5515C107.357 40.0171 107.102 39.5478 106.54 39.1139L106.533 39.1084L106.526 39.1028C106.052 38.7261 105.165 38.4244 103.63 38.4244C102.68 38.4244 101.994 38.5193 101.526 38.6659C101.004 38.8298 100.706 39.0149 100.545 39.1673L100.543 39.1687C100.34 39.3601 100.239 39.5204 100.19 39.6429C100.121 39.8705 100.095 40.0575 100.095 40.2096C100.095 40.4477 100.16 40.5841 100.298 40.7107C100.607 40.9522 101.048 41.1913 101.657 41.4057C102.359 41.6271 103.136 41.8341 103.991 42.0256C104.903 42.2303 105.807 42.4627 106.702 42.7229C107.662 42.9784 108.552 43.3156 109.365 43.7401C110.256 44.1766 111.006 44.7643 111.575 45.5186C112.236 46.3689 112.519 47.4045 112.519 48.5247C112.519 50.5729 111.71 52.2623 110.075 53.4279L110.066 53.4349C108.504 54.5261 106.469 55 104.095 55C102.214 55 100.579 54.7532 99.255 54.1896L99.247 54.1862ZM110.566 46.2892C110.129 45.7076 109.537 45.235 108.791 44.8715C108.063 44.4898 107.253 44.1808 106.361 43.9446C105.487 43.6901 104.604 43.4629 103.712 43.263C102.82 43.0631 102.001 42.845 101.255 42.6087C100.527 42.3543 99.9351 42.0453 99.48 41.6818C99.0431 41.3001 98.8247 40.8094 98.8247 40.2096C98.8247 39.9006 98.8793 39.5735 98.9885 39.2281C99.1159 38.8828 99.3435 38.5557 99.6711 38.2467C100.017 37.9195 100.509 37.656 101.146 37.4561C101.783 37.2562 102.611 37.1562 103.63 37.1562C105.287 37.1562 106.516 37.4743 107.317 38.1104C108.118 38.7283 108.573 39.4917 108.682 40.4004H110.784C110.758 39.963 110.677 39.5403 110.541 39.1323C110.395 38.6927 110.184 38.2703 109.911 37.865C109.401 37.0835 108.627 36.4564 107.59 35.9839C106.552 35.4932 105.232 35.2478 103.63 35.2478C101.373 35.2478 99.6711 35.7113 98.5243 36.6382C97.3957 37.5651 96.8314 38.7647 96.8314 40.2369C96.8314 41.1274 97.0498 41.8635 97.4867 42.4451C97.9418 43.0086 98.5334 43.472 99.2616 43.8355C100.008 44.199 100.818 44.4989 101.692 44.7352C102.584 44.9715 103.467 45.1986 104.34 45.4167C105.214 45.6167 106.015 45.8439 106.743 46.0983C107.49 46.3528 108.081 46.6799 108.518 47.0798C108.973 47.4614 109.201 47.9703 109.201 48.6065C109.201 49.6606 108.755 50.4603 107.863 51.0056C106.971 51.5327 105.76 51.7962 104.231 51.7962C103.194 51.7962 102.238 51.669 101.364 51.4145C100.509 51.1601 99.8168 50.7693 99.2889 50.2422C98.761 49.697 98.4697 48.9881 98.4151 48.1157H96.2853C96.3227 48.5569 96.3987 48.9796 96.5132 49.3839C96.677 49.9622 96.9196 50.5028 97.241 51.0056C97.8053 51.8598 98.6426 52.5323 99.7531 53.023C100.863 53.4956 102.311 53.7318 104.095 53.7318C106.315 53.7318 108.063 53.2865 109.337 52.396C110.611 51.4872 111.249 50.1968 111.249 48.5247C111.249 47.6159 111.021 46.8708 110.566 46.2892ZM115.61 54.7819V34.1977H131.448V38.697H120.198V42.2129H130.246V46.7394H120.198V50.2827H131.448V54.7819H115.61ZM118.928 51.5508V45.4713H128.976V43.4811H118.928V37.4288H130.178V35.4659H116.88V53.5137H130.178V51.5508H118.928ZM137.574 54.1862L137.566 54.1827C136.274 53.612 135.229 52.7959 134.507 51.7038L134.502 51.6959L134.497 51.6879C133.833 50.6498 133.454 49.4868 133.346 48.2228L133.23 46.8476H137.935L138.009 48.0366C138.048 48.6514 138.239 49.0581 138.521 49.3533C138.872 49.7008 139.364 49.9936 140.05 50.1981C140.792 50.4139 141.626 50.528 142.558 50.528C143.954 50.528 144.91 50.2854 145.534 49.9191C146.039 49.6079 146.257 49.2211 146.257 48.6065C146.257 48.3142 146.173 48.1724 146.028 48.0508L146.007 48.0331L145.986 48.0146C145.714 47.7653 145.292 47.514 144.659 47.2984L144.65 47.2953C143.973 47.0586 143.218 46.8439 142.383 46.6529L142.371 46.6501L142.359 46.6471C141.479 46.4274 140.59 46.1987 139.693 45.9609L139.686 45.9593C138.742 45.7039 137.856 45.3769 137.031 44.9753L137.02 44.9699C136.149 44.5351 135.407 43.9627 134.825 43.2412L134.811 43.2239L134.797 43.206C134.161 42.3593 133.888 41.3388 133.888 40.2369C133.888 38.3894 134.619 36.8291 136.044 35.6588L136.052 35.6525C137.517 34.4681 139.556 33.9796 141.957 33.9796C143.674 33.9796 145.193 34.2403 146.452 34.8339C147.653 35.3824 148.63 36.1472 149.296 37.1643C149.943 38.1247 150.31 39.1844 150.379 40.3245L150.46 41.6686H145.882L145.747 40.5515C145.683 40.0171 145.429 39.5478 144.867 39.1139L144.86 39.1084L144.853 39.1028C144.378 38.7261 143.491 38.4244 141.957 38.4244C141.006 38.4244 140.32 38.5193 139.853 38.6659C139.331 38.8298 139.032 39.0149 138.871 39.1673L138.87 39.1687C138.667 39.3601 138.566 39.5204 138.516 39.6429C138.447 39.8704 138.421 40.0575 138.421 40.2096C138.421 40.4477 138.487 40.5841 138.624 40.7107C138.934 40.9522 139.375 41.1914 139.984 41.4057C140.685 41.6271 141.463 41.8341 142.317 42.0256C143.23 42.2302 144.134 42.4626 145.029 42.7229C145.989 42.9783 146.879 43.3156 147.692 43.74C148.582 44.1766 149.332 44.7644 149.902 45.5188C150.563 46.369 150.845 47.4046 150.845 48.5247C150.845 50.5729 150.036 52.2623 148.402 53.4279L148.392 53.4349C146.831 54.5261 144.796 55 142.421 55C140.541 55 138.906 54.7532 137.582 54.1896L137.574 54.1862ZM148.893 46.2892C148.456 45.7076 147.864 45.235 147.118 44.8715C146.39 44.4898 145.58 44.1808 144.688 43.9446C143.814 43.6901 142.931 43.4629 142.039 43.263C141.147 43.0631 140.328 42.845 139.581 42.6087C138.853 42.3543 138.262 42.0453 137.807 41.6818C137.37 41.3001 137.151 40.8094 137.151 40.2096C137.151 39.9006 137.206 39.5735 137.315 39.2281C137.443 38.8828 137.67 38.5557 137.998 38.2467C138.344 37.9195 138.835 37.656 139.472 37.4561C140.109 37.2562 140.938 37.1562 141.957 37.1562C143.614 37.1562 144.842 37.4743 145.643 38.1104C146.444 38.7283 146.899 39.4917 147.009 40.4004H149.111C149.085 39.963 149.004 39.5403 148.868 39.1323C148.721 38.6927 148.511 38.2703 148.237 37.865C147.728 37.0835 146.954 36.4564 145.916 35.9839C144.879 35.4932 143.559 35.2478 141.957 35.2478C139.7 35.2478 137.998 35.7113 136.851 36.6382C135.722 37.5651 135.158 38.7647 135.158 40.2369C135.158 41.1274 135.376 41.8635 135.813 42.4451C136.268 43.0086 136.86 43.472 137.588 43.8355C138.335 44.199 139.145 44.4989 140.018 44.7352C140.91 44.9715 141.793 45.1986 142.667 45.4167C143.541 45.6167 144.342 45.8439 145.07 46.0983C145.816 46.3528 146.408 46.6799 146.845 47.0798C147.3 47.4614 147.527 47.9703 147.527 48.6065C147.527 49.6606 147.081 50.4603 146.189 51.0056C145.297 51.5327 144.087 51.7962 142.558 51.7962C141.52 51.7962 140.564 51.669 139.691 51.4145C138.835 51.1601 138.143 50.7693 137.616 50.2422C137.088 49.697 136.796 48.9881 136.742 48.1157H134.612C134.649 48.5569 134.725 48.9796 134.84 49.3839C135.004 49.9622 135.246 50.5028 135.568 51.0056C136.132 51.8598 136.969 52.5323 138.08 53.023C139.19 53.4956 140.637 53.7318 142.421 53.7318C144.642 53.7318 146.39 53.2865 147.664 52.396C148.938 51.4872 149.575 50.1968 149.575 48.5247C149.575 47.6159 149.348 46.8708 148.893 46.2892Z" fill="#DC2141"/>
</svg>
