<svg width="50" height="41" viewBox="0 0 50 41" fill="none" xmlns="http://www.w3.org/2000/svg">
<path d="M25 0L50 18.6937L48.3737 20.7606L43.2729 16.9395V41H6.72705V16.9422L1.62629 20.7606L0 18.6937L25 0ZM15.874 21.368C15.874 23.1108 16.8129 24.9684 18.6906 26.9406C20.5684 28.9111 22.6715 30.9581 25 33.0815C27.3964 30.9581 29.5334 28.912 31.4112 26.9432C33.289 24.9745 34.2278 23.1204 34.2278 21.381C34.2278 19.9387 33.7319 18.7371 32.7399 17.7762C31.7479 16.817 30.5585 16.3374 29.1715 16.3374C28.3118 16.3374 27.5312 16.5156 26.8299 16.8718C26.1286 17.228 25.5186 17.6754 25 18.2141C24.5475 17.6754 23.9576 17.228 23.2301 16.8718C22.5027 16.5156 21.7413 16.3374 20.946 16.3374C19.5538 16.3374 18.36 16.8153 17.3645 17.771C16.3691 18.7267 15.8722 19.9257 15.874 21.368Z" fill="#F5F5F5"/>
</svg>
