<svg width="69" height="69" viewBox="0 0 69 69" fill="none" xmlns="http://www.w3.org/2000/svg">
<path fill-rule="evenodd" clip-rule="evenodd" d="M3 0C1.34315 0 0 1.34315 0 3V66C0 67.6569 1.34315 69 3 69H66C67.6569 69 69 67.6569 69 66V3C69 1.34315 67.6569 0 66 0H3ZM39.3591 34.0071C39.3591 33.2023 40.0139 32.5475 40.8187 32.5475C41.6235 32.5475 42.2783 33.2023 42.2783 34.0071C42.2783 34.812 41.6235 35.4668 40.8187 35.4668C40.0139 35.4668 39.3591 34.812 39.3591 34.0071ZM17.2216 21.4825H13.6547V24.4017H17.2216V32.5475H13.3293V35.4668H17.2216V43.6126H13.3293V46.5318H17.2216V56.1446H24.0331V11.8696H17.2216V21.4825ZM26.9524 56.1446V11.8696H54.6851V56.1446H26.9524ZM43.5926 37.6028C44.4003 38.452 45.4886 38.9197 46.6572 38.9197C48.8332 38.9197 51.036 37.2323 51.0361 34.0071C51.0361 28.3733 46.4526 23.7898 40.8188 23.7898C35.185 23.7898 30.6015 28.3733 30.6015 34.0071C30.6015 39.641 35.185 44.2244 40.8188 44.2244C42.1974 44.2244 43.5356 43.954 44.7963 43.4209L43.659 40.7323C42.7602 41.1125 41.8045 41.3052 40.8187 41.3052C36.7946 41.3052 33.5206 38.0313 33.5206 34.0071C33.5206 29.983 36.7946 26.7091 40.8187 26.7091C44.8429 26.7091 48.1168 29.983 48.1168 34.0071C48.1168 35.4784 47.3304 36.0005 46.6572 36.0005C45.9839 36.0005 45.1976 35.4784 45.1976 34.0071C45.1976 31.5926 43.2332 29.6283 40.8187 29.6283C38.4042 29.6283 36.4399 31.5926 36.4399 34.0071C36.4399 36.4216 38.4042 38.386 40.8187 38.386C41.8196 38.386 42.7425 38.0477 43.4808 37.4805C43.5183 37.5232 43.5557 37.5639 43.5926 37.6028Z" fill="#F2D0A4"/>
</svg>
