<svg width="24" height="42" viewBox="0 0 24 42" fill="none" xmlns="http://www.w3.org/2000/svg">
<path d="M22.3359 0H1.66406C1.27245 0 0.896884 0.155566 0.619975 0.432475C0.343066 0.709384 0.1875 1.08495 0.1875 1.47656V40.5234C0.1875 40.915 0.343066 41.2906 0.619975 41.5675C0.896884 41.8444 1.27245 42 1.66406 42H22.3359C22.7275 42 23.1031 41.8444 23.38 41.5675C23.6569 41.2906 23.8125 40.915 23.8125 40.5234V1.47656C23.8125 1.08495 23.6569 0.709384 23.38 0.432475C23.1031 0.155566 22.7275 0 22.3359 0V0ZM3.14062 36.75V5.25H20.8594V36.75H3.14062Z" fill="#EFEFEF" fill-opacity="0.42"/>
</svg>
