<svg width="17" height="22" viewBox="0 0 17 22" fill="none" xmlns="http://www.w3.org/2000/svg">
<path d="M9 6.77872V14.3256H7.5V6.77872H0.5625C0.413316 6.77872 0.270242 6.83798 0.164752 6.94347C0.0592632 7.04896 0 7.19203 0 7.34122V20.4662C0 20.6154 0.0592632 20.7585 0.164752 20.864C0.270242 20.9695 0.413316 21.0287 0.5625 21.0287H15.9375C16.0867 21.0287 16.2298 20.9695 16.3352 20.864C16.4407 20.7585 16.5 20.6154 16.5 20.4662V7.34122C16.5 7.19203 16.4407 7.04896 16.3352 6.94347C16.2298 6.83798 16.0867 6.77872 15.9375 6.77872H9Z" fill="#DC2141" fill-opacity="0.69"/>
<path d="M8.99999 2.87156L12 5.87156L13.0608 4.81078L8.24999 0L3.43921 4.81078L4.49999 5.87156L7.49999 2.87156V6.77953H8.99999V2.87156Z" fill="#DC2141" fill-opacity="0.69"/>
</svg>
